<svg width="16" height="16" viewBox="0 0 16 16" fill="none" xmlns="http://www.w3.org/2000/svg">
<path d="M6.25875 4.47518C7.13854 2.89684 7.57852 2.10767 8.2362 2.10767C8.89388 2.10767 9.33386 2.89684 10.2137 4.47518L10.4413 4.88352C10.6913 5.33203 10.8163 5.55629 11.0112 5.70426C11.2061 5.85222 11.4489 5.90715 11.9344 6.017L12.3764 6.11701C14.085 6.50361 14.9392 6.69687 15.1425 7.35047C15.3457 8.00398 14.7633 8.68503 13.5986 10.047L13.2973 10.3994C12.9662 10.7865 12.8007 10.98 12.7263 11.2195C12.6518 11.4588 12.6768 11.7171 12.7269 12.2335L12.7725 12.7036C12.9486 14.5209 13.0366 15.4295 12.5045 15.8334C11.9724 16.2374 11.1725 15.8691 9.57289 15.1325L9.15898 14.942C8.70445 14.7327 8.47711 14.628 8.2362 14.628C7.99529 14.628 7.76795 14.7327 7.31342 14.942L6.89951 15.1325C5.29983 15.8691 4.49998 16.2374 3.96789 15.8334C3.43579 15.4295 3.52384 14.5209 3.69994 12.7036L3.7455 12.2335C3.79554 11.7171 3.82056 11.4588 3.7461 11.2195C3.67166 10.98 3.50616 10.7865 3.17517 10.3994L2.87383 10.047C1.70906 8.68503 1.12668 8.00398 1.32993 7.35047C1.53316 6.69687 2.38743 6.50361 4.09597 6.11701L4.53798 6.017C5.02349 5.90715 5.26625 5.85222 5.46117 5.70426C5.65609 5.55629 5.7811 5.33203 6.03112 4.88352L6.25875 4.47518Z" fill="url(#paint0_linear_37_29)"/>
<path d="M1.99937 0.065115C2.02388 -0.0213279 2.17732 -0.0218511 2.20241 0.0644284C2.31698 0.458407 2.52943 1.04076 2.85069 1.35986C3.17195 1.67895 3.75572 1.88746 4.15046 1.99937C4.23692 2.02388 4.23743 2.17732 4.15115 2.20241C3.75717 2.31698 3.17482 2.52943 2.85573 2.85069C2.53663 3.17195 2.32812 3.75572 2.21621 4.15046C2.1917 4.23692 2.03826 4.23743 2.01317 4.15115C1.8986 3.75717 1.68615 3.17482 1.36489 2.85573C1.04363 2.53663 0.459861 2.32812 0.065115 2.21621C-0.0213279 2.1917 -0.0218511 2.03826 0.0644284 2.01317C0.458407 1.8986 1.04076 1.68615 1.35986 1.36489C1.67895 1.04363 1.88746 0.459861 1.99937 0.065115Z" fill="url(#paint1_linear_37_29)"/>
<path fill-rule="evenodd" clip-rule="evenodd" d="M13.5483 0.677376C13.8867 0.677376 14.1612 0.951782 14.1612 1.29027V1.49457H14.3655C14.7039 1.49457 14.9783 1.76898 14.9783 2.10747C14.9783 2.44596 14.7039 2.72036 14.3655 2.72036H14.1612V2.92466C14.1612 3.26315 13.8867 3.53756 13.5483 3.53756C13.2098 3.53756 12.9354 3.26315 12.9354 2.92466V2.72036H12.7311C12.3926 2.72036 12.1182 2.44596 12.1182 2.10747C12.1182 1.76898 12.3926 1.49457 12.7311 1.49457H12.9354V1.29027C12.9354 0.951782 13.2098 0.677376 13.5483 0.677376Z" fill="url(#paint2_linear_37_29)"/>
<defs>
<linearGradient id="paint0_linear_37_29" x1="8.2362" y1="2.10767" x2="8.2362" y2="16" gradientUnits="userSpaceOnUse">
<stop offset="0.25" stop-color="#19CCED"/>
<stop offset="1" stop-color="#00AEEF"/>
</linearGradient>
<linearGradient id="paint1_linear_37_29" x1="2.10779" y1="0" x2="2.10779" y2="4.21558" gradientUnits="userSpaceOnUse">
<stop offset="0.25" stop-color="#19CCED"/>
<stop offset="1" stop-color="#00AEEF"/>
</linearGradient>
<linearGradient id="paint2_linear_37_29" x1="13.5483" y1="0.677376" x2="13.5483" y2="3.53756" gradientUnits="userSpaceOnUse">
<stop offset="0.25" stop-color="#19CCED"/>
<stop offset="1" stop-color="#00AEEF"/>
</linearGradient>
</defs>
</svg>
