<svg width="16" height="16" viewBox="0 0 16 16" fill="none" xmlns="http://www.w3.org/2000/svg">
<path d="M2.16699 8V1.33333M13.8337 14.6667V12.1667M2.16699 14.6667V11.3333M13.8337 8.83333V1.33333M8.00033 3.83333V1.33333M8.00033 14.6667V7.16667" stroke="white" stroke-linecap="round"/>
<path d="M2.16667 11.3333C3.08714 11.3333 3.83333 10.5871 3.83333 9.66667C3.83333 8.74619 3.08714 8 2.16667 8C1.24619 8 0.5 8.74619 0.5 9.66667C0.5 10.5871 1.24619 11.3333 2.16667 11.3333Z" stroke="white" stroke-linecap="round"/>
<path d="M7.99967 7.16667C8.92015 7.16667 9.66634 6.42047 9.66634 5.5C9.66634 4.57952 8.92015 3.83333 7.99967 3.83333C7.0792 3.83333 6.33301 4.57952 6.33301 5.5C6.33301 6.42047 7.0792 7.16667 7.99967 7.16667Z" stroke="white" stroke-linecap="round"/>
<path d="M13.8337 12.1667C14.7541 12.1667 15.5003 11.4205 15.5003 10.5C15.5003 9.57952 14.7541 8.83333 13.8337 8.83333C12.9132 8.83333 12.167 9.57952 12.167 10.5C12.167 11.4205 12.9132 12.1667 13.8337 12.1667Z" stroke="white" stroke-linecap="round"/>
</svg>
