<svg width="20" height="20" viewBox="0 0 20 20" fill="none" xmlns="http://www.w3.org/2000/svg">
<path d="M18.2812 1.875H1.71875C1.45987 1.875 1.25 2.08487 1.25 2.34375V4.53125C1.25 4.79013 1.45987 5 1.71875 5H18.2812C18.5401 5 18.75 4.79013 18.75 4.53125V2.34375C18.75 2.08487 18.5401 1.875 18.2812 1.875Z" fill="black"/>
<path d="M2.5 6.25V17.1875C2.5 17.4361 2.59877 17.6746 2.77459 17.8504C2.9504 18.0262 3.18886 18.125 3.4375 18.125H16.5625C16.8111 18.125 17.0496 18.0262 17.2254 17.8504C17.4012 17.6746 17.5 17.4361 17.5 17.1875V6.25H2.5ZM10 15.259L6.61406 11.875L7.5 10.9891L9.375 12.866V8.125H10.625V12.866L12.5027 10.9883L13.3859 11.8727L10 15.259Z" fill="black"/>
</svg>
