<svg width="24" height="24" viewBox="0 0 24 24" fill="none" xmlns="http://www.w3.org/2000/svg">
<g clip-path="url(#clip0_88_1500)">
<path d="M11.3956 4.29994C17.9107 3.82288 22.0885 11.1844 18.2475 16.5128C15.1923 20.7513 8.83564 20.7749 5.76543 16.5435C2.22777 11.6679 5.4136 4.737 11.3956 4.29923V4.29994ZM12.8629 11.5579L12.8386 7.53793C12.606 6.60524 11.3306 6.63167 11.1436 7.58364C11.23 9.01624 11.0123 10.6138 11.1365 12.0264C11.1686 12.3906 11.2814 12.5178 11.549 12.7384C12.0593 13.1576 13.5088 14.1403 14.0854 14.4317C15.0981 14.9423 15.8924 13.7483 15.071 13.017L12.8622 11.5586L12.8629 11.5579Z" fill="white"/>
<path d="M6.37435 3.42658C6.83538 3.4073 7.33423 3.38588 7.59758 3.83651C7.94014 4.42426 7.54548 5.08486 6.88534 5.14271C6.22519 5.20055 4.9256 5.20198 4.25832 5.14271C3.81156 5.10343 3.4797 4.82062 3.43046 4.36427C3.36195 3.72296 3.37123 2.33464 3.42832 1.68404C3.48969 0.987733 4.2105 0.602088 4.79571 1.0163C5.18894 1.29482 5.13328 1.71546 5.16967 2.1411C11.3943 -2.21669 20.1318 0.354275 23.0457 7.33874C26.7618 16.245 19.0663 25.6112 9.62797 23.7651C4.35538 22.7339 0.228224 18.0161 0.00555866 12.6128C-0.0237018 11.9108 0.0298235 11.0302 0.990423 11.1445C1.83684 11.2452 1.66627 12.0472 1.71837 12.6128C2.24077 18.2432 6.60415 22.4639 12.3435 22.2818C21.8881 21.9797 25.859 9.97327 18.4432 3.96434C15.0519 1.21698 9.98266 0.929172 6.37506 3.42658H6.37435Z" fill="white"/>
</g>
<defs>
<clipPath id="clip0_88_1500">
<rect width="24" height="24" fill="white"/>
</clipPath>
</defs>
</svg>
