<svg width="25" height="20" viewBox="0 0 25 20" fill="none" xmlns="http://www.w3.org/2000/svg">
<path d="M15.9198 0.0799519C16.5698 0.329952 16.9036 1.0862 16.6673 1.7712L10.6823 19.1312C10.4448 19.8162 9.72857 20.1687 9.07982 19.92C8.42982 19.67 8.09607 18.9137 8.33232 18.2287L14.3173 0.868702C14.5548 0.183702 15.2711 -0.168798 15.9198 0.0799519ZM3.01732 10.32L7.43732 14.9875C7.92482 15.5025 7.92482 16.3375 7.43732 16.8525C7.32462 16.9743 7.18793 17.0716 7.03585 17.1381C6.88376 17.2046 6.71956 17.2389 6.55357 17.2389C6.38758 17.2389 6.22339 17.2046 6.0713 17.1381C5.91922 17.0716 5.78253 16.9743 5.66982 16.8525L0.366074 11.2537C0.13134 10.9997 0.000976562 10.6665 0.000976563 10.3206C0.000976562 9.97469 0.13134 9.6415 0.366074 9.38745L5.66982 3.78745C5.78253 3.66559 5.91922 3.56835 6.0713 3.50185C6.22339 3.43534 6.38758 3.40101 6.55357 3.40101C6.71956 3.40101 6.88376 3.43534 7.03585 3.50185C7.18793 3.56835 7.32462 3.66559 7.43732 3.78745C7.67242 4.04157 7.803 4.37502 7.803 4.7212C7.803 5.06739 7.67242 5.40083 7.43732 5.65495L3.01732 10.32ZM21.9823 10.32L17.5623 5.65495C17.3276 5.4009 17.1972 5.06772 17.1972 4.72183C17.1972 4.37594 17.3276 4.04275 17.5623 3.7887C17.675 3.66684 17.8117 3.5696 17.9638 3.5031C18.1159 3.43659 18.2801 3.40226 18.4461 3.40226C18.6121 3.40226 18.7763 3.43659 18.9283 3.5031C19.0804 3.5696 19.2171 3.66684 19.3298 3.7887L24.6336 9.38745C25.1211 9.90245 25.1211 10.7375 24.6336 11.2537L19.3298 16.8512C19.2171 16.9731 19.0804 17.0703 18.9283 17.1368C18.7763 17.2033 18.6121 17.2376 18.4461 17.2376C18.2801 17.2376 18.1159 17.2033 17.9638 17.1368C17.8117 17.0703 17.675 16.9731 17.5623 16.8512C17.3279 16.5972 17.1978 16.2643 17.1978 15.9187C17.1978 15.5731 17.3279 15.2402 17.5623 14.9862L21.9823 10.32Z" fill="black"/>
</svg>
