<svg width="38" height="11" viewBox="0 0 38 11" fill="none" xmlns="http://www.w3.org/2000/svg">
<g clip-path="url(#clip0_1_13)">
<path d="M10.6677 6.94711C10.0695 6.94711 9.50892 6.69382 8.99961 6.2815L9.12363 5.69944L9.12902 5.67787C9.23945 5.05813 9.5898 4.01787 10.6677 4.01787C11.4761 4.01787 12.1337 4.67543 12.1337 5.48382C12.1309 6.28955 11.4735 6.94711 10.6677 6.94711ZM10.6677 2.53309C9.29064 2.53309 8.22357 3.42776 7.78975 4.8991C7.12681 3.90471 6.62555 2.71096 6.33186 1.70579H4.84974V5.56197C4.84974 6.32191 4.22992 6.94164 3.46999 6.94164C2.71006 6.94164 2.09032 6.32191 2.09032 5.56197V1.70579H0.608049V5.56197C0.602657 7.14115 1.88808 8.43728 3.46719 8.43728C5.0463 8.43728 6.33193 7.14115 6.33193 5.56197V4.91527C6.62023 5.51617 6.97324 6.12247 7.40173 6.66147L6.49355 10.9299H8.01076L8.66824 7.83365C9.24492 8.20283 9.90787 8.43462 10.6678 8.43462C12.2927 8.43462 13.6159 7.10341 13.6159 5.47843C13.6159 3.85618 12.2927 2.53309 10.6678 2.53309" fill="black"/>
<path d="M18.1404 2.70018L19.097 6.55636L20.1507 2.70018H21.4064L19.7869 8.27294H18.5311L17.5368 4.39245L16.5451 8.27021H15.2893L13.6697 2.69752H14.9255L15.9791 6.5537L16.9357 2.69752H18.1403L18.1404 2.70018ZM24.4111 2.5331C22.7808 2.5331 21.4603 3.85619 21.4603 5.48383C21.4603 7.1142 22.7834 8.43463 24.4111 8.43463C26.0414 8.43463 27.3645 7.1142 27.3645 5.48383C27.3645 3.85353 26.0414 2.5331 24.4111 2.5331ZM24.4111 7.22197C23.4518 7.22197 22.6757 6.44586 22.6757 5.48656C22.6757 4.52726 23.4544 3.75115 24.4111 3.75115C25.3704 3.75115 26.1465 4.52719 26.1465 5.48656C26.1465 6.4432 25.3704 7.22197 24.4111 7.22197ZM30.9513 3.94785C30.1078 3.94785 29.4261 4.6323 29.4261 5.47304V8.27021H28.1621V2.70018H29.4261V3.5571C29.4261 3.5571 29.965 2.69745 31.0725 2.69745H31.4606V3.94785H30.9513ZM35.1929 5.26828C36.0901 4.76164 36.6992 3.7996 36.6992 2.69745H35.4353C35.4353 3.62713 34.6808 4.38167 33.7511 4.38167H33.5813V0.010788H32.3176V8.27013H33.5813V5.64552H33.7323C33.8563 5.64552 34.018 5.7264 34.0907 5.82605L35.8854 8.27021H37.3998L35.1929 5.26828Z" fill="white"/>
</g>
<defs>
<clipPath id="clip0_1_13">
<rect width="36.8105" height="11" fill="white" transform="translate(0.594727)"/>
</clipPath>
</defs>
</svg>
