<svg width="30" height="30" viewBox="0 0 30 30" fill="none" xmlns="http://www.w3.org/2000/svg">
<path d="M13.2375 30C12.5625 30 11.9815 29.775 11.4945 29.325C11.0075 28.875 10.7135 28.325 10.6125 27.675L10.275 25.2C9.95 25.075 9.644 24.925 9.357 24.75C9.07 24.575 8.7885 24.3875 8.5125 24.1875L6.1875 25.1625C5.5625 25.4375 4.9375 25.4625 4.3125 25.2375C3.6875 25.0125 3.2 24.6125 2.85 24.0375L1.0875 20.9625C0.737501 20.3875 0.637501 19.775 0.787501 19.125C0.937501 18.475 1.275 17.9375 1.8 17.5125L3.7875 16.0125C3.7625 15.8375 3.75 15.6685 3.75 15.5055V14.493C3.75 14.331 3.7625 14.1625 3.7875 13.9875L1.8 12.4875C1.275 12.0625 0.937501 11.525 0.787501 10.875C0.637501 10.225 0.737501 9.6125 1.0875 9.0375L2.85 5.9625C3.2 5.3875 3.6875 4.9875 4.3125 4.7625C4.9375 4.5375 5.5625 4.5625 6.1875 4.8375L8.5125 5.8125C8.7875 5.6125 9.075 5.425 9.375 5.25C9.675 5.075 9.975 4.925 10.275 4.8L10.6125 2.325C10.7125 1.675 11.0065 1.125 11.4945 0.675C11.9825 0.225 12.5635 0 13.2375 0H16.7625C17.4375 0 18.019 0.225 18.507 0.675C18.995 1.125 19.2885 1.675 19.3875 2.325L19.725 4.8C20.05 4.925 20.3565 5.075 20.6445 5.25C20.9325 5.425 21.2135 5.6125 21.4875 5.8125L23.8125 4.8375C24.4375 4.5625 25.0625 4.5375 25.6875 4.7625C26.3125 4.9875 26.8 5.3875 27.15 5.9625L28.9125 9.0375C29.2625 9.6125 29.3625 10.225 29.2125 10.875C29.0625 11.525 28.725 12.0625 28.2 12.4875L26.2125 13.9875C26.2375 14.1625 26.25 14.3315 26.25 14.4945V15.5055C26.25 15.6685 26.225 15.8375 26.175 16.0125L28.1625 17.5125C28.6875 17.9375 29.025 18.475 29.175 19.125C29.325 19.775 29.225 20.3875 28.875 20.9625L27.075 24.0375C26.725 24.6125 26.2375 25.0125 25.6125 25.2375C24.9875 25.4625 24.3625 25.4375 23.7375 25.1625L21.4875 24.1875C21.2125 24.3875 20.925 24.575 20.625 24.75C20.325 24.925 20.025 25.075 19.725 25.2L19.3875 27.675C19.2875 28.325 18.994 28.875 18.507 29.325C18.02 29.775 17.4385 30 16.7625 30H13.2375ZM13.5 27H16.4625L16.9875 23.025C17.7625 22.825 18.4815 22.5315 19.1445 22.1445C19.8075 21.7575 20.4135 21.2885 20.9625 20.7375L24.675 22.275L26.1375 19.725L22.9125 17.2875C23.0375 16.9375 23.125 16.569 23.175 16.182C23.225 15.795 23.25 15.401 23.25 15C23.25 14.599 23.225 14.2055 23.175 13.8195C23.125 13.4335 23.0375 13.0645 22.9125 12.7125L26.1375 10.275L24.675 7.725L20.9625 9.3C20.4125 8.725 19.8065 8.244 19.1445 7.857C18.4825 7.47 17.7635 7.176 16.9875 6.975L16.5 3H13.5375L13.0125 6.975C12.2375 7.175 11.519 7.469 10.857 7.857C10.195 8.245 9.5885 8.7135 9.0375 9.2625L5.325 7.725L3.8625 10.275L7.0875 12.675C6.9625 13.05 6.875 13.425 6.825 13.8C6.775 14.175 6.75 14.575 6.75 15C6.75 15.4 6.775 15.7875 6.825 16.1625C6.875 16.5375 6.9625 16.9125 7.0875 17.2875L3.8625 19.725L5.325 22.275L9.0375 20.7C9.5875 21.275 10.194 21.7565 10.857 22.1445C11.52 22.5325 12.2385 22.826 13.0125 23.025L13.5 27ZM15.075 20.25C16.525 20.25 17.7625 19.7375 18.7875 18.7125C19.8125 17.6875 20.325 16.45 20.325 15C20.325 13.55 19.8125 12.3125 18.7875 11.2875C17.7625 10.2625 16.525 9.75 15.075 9.75C13.6 9.75 12.3565 10.2625 11.3445 11.2875C10.3325 12.3125 9.826 13.55 9.825 15C9.824 16.45 10.3305 17.6875 11.3445 18.7125C12.3585 19.7375 13.602 20.25 15.075 20.25Z" fill="black"/>
</svg>
