<svg width="20" height="24" viewBox="0 0 20 24" fill="none" xmlns="http://www.w3.org/2000/svg">
<g clip-path="url(#clip0_88_1496)">
<path d="M16.2766 24H3.7028C-0.205526 23.4595 -0.324954 20.1185 0.258133 16.9155C0.735843 14.294 2.15668 11.5381 5.21906 11.581C5.83961 11.5898 6.8284 12.4542 7.41032 12.7617C9.12152 13.6661 11.0025 13.6268 12.6909 12.6978C13.2617 12.3838 14.1615 11.581 14.8014 11.581C19.0486 11.581 20.216 16.9566 19.9678 20.321C19.8191 22.3369 18.2735 23.8298 16.2755 24H16.2766Z" fill="white"/>
<path d="M13.9225 9.8797C10.4146 13.3961 4.35246 11.0734 4.07438 6.12618C3.78225 0.933687 10.003 -2.00176 13.7995 1.57805C16.16 3.80341 16.2168 7.57981 13.9225 9.87911V9.8797Z" fill="white"/>
</g>
<defs>
<linearGradient id="paint0_linear_88_1496" x1="9.99968" y1="11.5805" x2="9.99968" y2="24" gradientUnits="userSpaceOnUse">
<stop stop-color="#00AEEF"/>
<stop offset="1" stop-color="#16D3F0"/>
</linearGradient>
<linearGradient id="paint1_linear_88_1496" x1="9.83581" y1="-4.57764e-05" x2="9.83581" y2="11.5689" gradientUnits="userSpaceOnUse">
<stop stop-color="#00AEEF"/>
<stop offset="1" stop-color="#16D3F0"/>
</linearGradient>
<clipPath id="clip0_88_1496">
<rect width="20" height="24" fill="white"/>
</clipPath>
</defs>
</svg>
