<svg width="16" height="16" viewBox="0 0 16 16" fill="none" xmlns="http://www.w3.org/2000/svg">
<path d="M2.16667 15.5C1.70833 15.5 1.31611 15.3369 0.99 15.0108C0.663889 14.6847 0.500556 14.2922 0.5 13.8333V2.16667C0.5 1.70833 0.663333 1.31611 0.99 0.99C1.31667 0.663889 1.70889 0.500556 2.16667 0.5H13.8333C14.2917 0.5 14.6842 0.663333 15.0108 0.99C15.3375 1.31667 15.5006 1.70889 15.5 2.16667V13.8333C15.5 14.2917 15.3369 14.6842 15.0108 15.0108C14.6847 15.3375 14.2922 15.5006 13.8333 15.5H2.16667ZM8 11.3333C8.52778 11.3333 9.00695 11.1806 9.4375 10.875C9.86806 10.5694 10.1667 10.1667 10.3333 9.66667H13.8333V2.16667H2.16667V9.66667H5.66667C5.83333 10.1667 6.13194 10.5694 6.5625 10.875C6.99306 11.1806 7.47222 11.3333 8 11.3333Z" fill="black"/>
</svg>
