<svg width="32" height="32" viewBox="0 0 32 32" fill="none" xmlns="http://www.w3.org/2000/svg">
<path d="M3 28.5C2.175 28.5 1.469 28.2065 0.882 27.6195C0.295 27.0325 0.001 26.326 0 25.5V9C0 8.175 0.294 7.469 0.882 6.882C1.47 6.295 2.176 6.001 3 6H9V3C9 2.175 9.294 1.469 9.882 0.882C10.47 0.295 11.176 0.001 12 0H18C18.825 0 19.5315 0.294 20.1195 0.882C20.7075 1.47 21.001 2.176 21 3V6H27C27.825 6 28.5315 6.294 29.1195 6.882C29.7075 7.47 30.001 8.176 30 9V15.4125C29.55 15.0875 29.075 14.8065 28.575 14.5695C28.075 14.3325 27.55 14.126 27 13.95V9H3V25.5H13.6125C13.6875 26.025 13.8 26.5375 13.95 27.0375C14.1 27.5375 14.2875 28.025 14.5125 28.5H3ZM12 6H18V3H12V6ZM24 31.5C21.925 31.5 20.1565 30.7685 18.6945 29.3055C17.2325 27.8425 16.501 26.074 16.5 24C16.499 21.926 17.2305 20.1575 18.6945 18.6945C20.1585 17.2315 21.927 16.5 24 16.5C26.073 16.5 27.842 17.2315 29.307 18.6945C30.772 20.1575 31.503 21.926 31.5 24C31.497 26.074 30.7655 27.843 29.3055 29.307C27.8455 30.771 26.077 31.502 24 31.5ZM24.75 23.7V19.5H23.25V24.3L26.475 27.525L27.525 26.475L24.75 23.7Z" fill="black"/>
</svg>
