<svg width="22" height="22" viewBox="0 0 22 22" fill="none" xmlns="http://www.w3.org/2000/svg">
<g clip-path="url(#clip0_88_1620)">
<path d="M9.36639 0C9.66572 0.135939 9.94765 0.302682 10.0327 0.643533C10.1814 4.06009 10.0528 7.50811 10.0983 10.936C10.0742 11.4336 9.78358 11.8561 9.26058 11.903L0.794874 11.9017C0.387058 11.8481 0.113171 11.5515 0 11.1711V0.730588C0.147323 0.338843 0.338843 0.146653 0.730588 0H9.36639Z" fill="white"/>
<path d="M21.2671 -1.73709e-06C21.6736 0.152678 21.9301 0.391743 21.9977 0.83773L21.9991 7.37016C21.9395 7.89718 21.6006 8.21124 21.0756 8.25075H12.78C12.2034 8.17843 11.9429 7.79606 11.8994 7.24092C12.0374 5.21925 11.7199 2.96119 11.9014 0.966972C11.9476 0.457369 12.1626 0.188839 12.6313 -0.000671387H21.2671V-1.73709e-06Z" fill="white"/>
<path d="M0 14.4792C0.15268 14.0727 0.391745 13.8162 0.837732 13.7486L9.21773 13.7472C9.76952 13.8135 10.0474 14.1832 10.0963 14.7162C9.99117 16.7506 10.2389 18.9296 10.099 20.9473C10.0588 21.5259 9.82644 21.919 9.21773 22L0.837732 21.9986C0.391745 21.931 0.15268 21.6752 0 21.2681V14.4798L0 14.4792Z" fill="white"/>
<path d="M12.1746 21.7248C11.9731 21.5219 11.9202 21.2232 11.8994 20.9473V11.0619C11.9235 10.5644 12.2148 10.1418 12.7371 10.095L21.377 10.1378C21.7399 10.2631 21.9843 10.5878 21.9991 10.9762V21.1194C21.9549 21.6129 21.612 21.9518 21.1185 22H12.78C12.5751 21.9893 12.3159 21.8681 12.174 21.7254L12.1746 21.7248Z" fill="white"/>
</g>
<defs>
<clipPath id="clip0_88_1620">
<rect width="22" height="22" fill="white"/>
</clipPath>
</defs>
</svg>
