<svg width="26" height="26" viewBox="0 0 26 26" fill="none" xmlns="http://www.w3.org/2000/svg">
<path d="M1 2.5C1 2.10218 1.15804 1.72064 1.43934 1.43934C1.72064 1.15804 2.10218 1 2.5 1H23.5C23.8978 1 24.2794 1.15804 24.5607 1.43934C24.842 1.72064 25 2.10218 25 2.5V5.5C25 5.89782 24.842 6.27936 24.5607 6.56066C24.2794 6.84196 23.8978 7 23.5 7H2.5C2.10218 7 1.72064 6.84196 1.43934 6.56066C1.15804 6.27936 1 5.89782 1 5.5V2.5ZM1 14.5C1 14.1022 1.15804 13.7206 1.43934 13.4393C1.72064 13.158 2.10218 13 2.5 13H11.5C11.8978 13 12.2794 13.158 12.5607 13.4393C12.842 13.7206 13 14.1022 13 14.5V23.5C13 23.8978 12.842 24.2794 12.5607 24.5607C12.2794 24.842 11.8978 25 11.5 25H2.5C2.10218 25 1.72064 24.842 1.43934 24.5607C1.15804 24.2794 1 23.8978 1 23.5V14.5ZM19 14.5C19 14.1022 19.158 13.7206 19.4393 13.4393C19.7206 13.158 20.1022 13 20.5 13H23.5C23.8978 13 24.2794 13.158 24.5607 13.4393C24.842 13.7206 25 14.1022 25 14.5V23.5C25 23.8978 24.842 24.2794 24.5607 24.5607C24.2794 24.842 23.8978 25 23.5 25H20.5C20.1022 25 19.7206 24.842 19.4393 24.5607C19.158 24.2794 19 23.8978 19 23.5V14.5Z" stroke="black" stroke-width="2" stroke-linecap="round" stroke-linejoin="round"/>
</svg>
