<svg width="24" height="24" viewBox="0 0 24 24" fill="none" xmlns="http://www.w3.org/2000/svg">
<g clip-path="url(#clip0_88_1630)">
<path d="M10.4796 23.9899C9.75301 23.7302 9.90183 22.8741 9.63816 22.2812C9.38211 22.2085 7.53465 21.6298 7.53347 21.4861L10.7614 18.2582C10.9583 18.1737 11.5167 18.3238 11.7645 18.3291C18.1395 18.4575 20.7616 10.3539 15.6136 6.80467C11.4036 3.90215 5.70242 6.99172 5.70593 12.0351L5.82371 13.2289L2.55242 16.5026C2.16453 15.8535 1.99109 15.107 1.75671 14.3958C1.13269 14.119 0.12605 14.2932 0.0463626 13.3925C-0.0151609 12.6918 -0.0157468 11.3285 0.0463626 10.6278C0.128394 9.69722 1.11687 9.93176 1.69871 9.66028C1.84519 9.59226 1.93777 8.97657 1.99988 8.79128C2.27351 7.97447 2.6532 7.20281 3.07859 6.45695C2.82605 5.69995 2.01335 5.29184 2.66726 4.4979C3.04753 4.03643 4.07761 2.9927 4.53933 2.6268C5.31687 2.00995 5.7405 2.80799 6.47351 3.0613C7.45086 2.47611 8.50554 2.03633 9.61238 1.7584C9.94578 1.15737 9.71609 0.110117 10.643 0.028026C11.5677 -0.053479 12.6335 0.0755218 13.5716 0.0508943C14.3151 0.243809 14.1341 1.16558 14.3743 1.68099C14.4423 1.827 15.0575 1.92023 15.2427 1.9818C16.0595 2.25329 16.8346 2.62798 17.5759 3.06072C18.2749 2.83848 18.746 2.01581 19.4872 2.60218C19.9038 2.93172 21.136 4.1537 21.4518 4.56768C22.0003 5.28715 21.1923 5.78908 20.9702 6.45637C21.5555 7.43384 21.995 8.48872 22.2727 9.59636C22.8364 9.91241 23.7645 9.71188 24.0001 10.4654V13.5538C23.7598 14.3008 22.8868 14.109 22.3495 14.3594C22.2036 14.4274 22.1098 15.0431 22.0483 15.2284C21.777 16.0452 21.402 16.821 20.9696 17.5627C21.2022 18.2558 22.0167 18.7302 21.4278 19.4749C21.0985 19.8918 19.8768 21.1243 19.4626 21.4404C18.7471 21.9863 18.2473 21.1701 17.5747 20.959C16.5973 21.5442 15.5427 21.984 14.4358 22.2619C14.1294 22.8295 14.3198 23.7284 13.5669 23.9899H10.4796Z" fill="white"/>
<path d="M2.38685 23.99C2.27025 24.0035 2.03587 24.0035 1.91927 23.99C0.231769 23.7918 -0.551043 21.702 0.607941 20.4554L7.37083 13.6923C7.42181 13.5785 7.2472 13.205 7.21732 13.0502C6.55521 9.64164 9.32259 6.63534 12.7831 7.15486C13.0943 7.20177 13.5601 7.26979 13.7283 7.56649C13.8859 7.84442 13.8431 8.12705 13.6615 8.38154C13.1687 9.07169 11.9324 9.79351 11.6827 10.6138C11.3411 11.7373 12.4351 12.7242 13.5326 12.3237C14.2398 12.0657 15.0343 10.7833 15.6765 10.35C16.2249 9.97997 16.6702 10.3248 16.8115 10.8935C17.6587 14.305 14.7062 17.3917 11.2585 16.8698C11.0804 16.8428 10.4265 16.6259 10.3427 16.6628L3.55814 23.4506C3.25521 23.7015 2.78177 23.942 2.38802 23.9883L2.38685 23.99Z" fill="white"/>
</g>
<defs>
<clipPath id="clip0_88_1630">
<rect width="24" height="24" fill="white"/>
</clipPath>
</defs>
</svg>
