<svg width="26" height="26" viewBox="0 0 26 26" fill="none" xmlns="http://www.w3.org/2000/svg">
<g clip-path="url(#clip0_88_1636)">
<path d="M6.6697 21.6676H3.25785C1.83624 21.6676 0.0710803 19.8314 0 18.4098V6.87109C0.225088 5.07038 1.65854 3.68432 3.45924 3.51846H15.1283L15.2941 3.56585C15.3652 4.60836 16.3485 5.25993 16.9053 6.06551C16.9645 7.30941 16.3722 8.73102 17.5687 9.61952C18.7652 10.508 19.9973 9.5129 21.1227 9.14566L22.8642 9.88015V18.0425C22.7812 19.8551 21.3004 21.5373 19.4642 21.6795C17.6279 21.8216 15.768 21.5492 13.991 21.7032C12.5101 22.6983 11.1478 23.9659 9.67877 24.9492C8.96797 25.4349 8.30455 25.5889 7.51082 25.1387C6.24322 24.4161 6.65786 22.8997 6.65786 21.6795L6.6697 21.6676ZM16.5854 10.0223C16.5025 9.93939 16.3485 9.892 16.2537 9.82092L7.13173 9.77353C6.12475 9.91569 6.18399 11.2781 7.19096 11.3847H16.0168C16.6683 11.3728 17.0356 10.4725 16.5854 10.0105V10.0223ZM12.4272 15.2112C12.8892 14.7492 12.6523 13.9791 12.0244 13.8488H7.03695C6.19584 14.0739 6.19584 15.1756 7.03695 15.4007H12.0363C12.1666 15.4007 12.3443 15.306 12.4272 15.223V15.2112Z" fill="white"/>
<path d="M21.5258 0.142157L22.9 2.28641C23.6108 2.58258 24.5941 2.61812 25.2812 2.90244C25.6247 3.0446 25.755 3.34077 25.5892 3.68433L24.0017 5.59165C23.978 5.79304 23.978 5.99444 24.0017 6.19583C24.0254 6.78817 24.1557 7.46343 24.1676 8.03207C24.1676 8.42302 23.8714 8.69549 23.4805 8.60072L21.1467 7.68852L18.955 8.57702C18.5996 8.69549 18.2561 8.55333 18.1731 8.18608L18.3271 5.63904L16.7634 3.76725C16.4909 3.4237 16.6331 3.02091 17.0358 2.87875C17.7585 2.61812 18.6588 2.55889 19.3933 2.29826L20.7794 0.13031C20.9808 -0.0592376 21.3362 -0.0710844 21.5376 0.13031L21.5258 0.142157Z" fill="white"/>
</g>
<defs>
<clipPath id="clip0_88_1636">
<rect width="25.66" height="25.3875" fill="white"/>
</clipPath>
</defs>
</svg>
