<svg width="25" height="25" viewBox="0 0 25 25" fill="none" xmlns="http://www.w3.org/2000/svg">
<path d="M13.4035 0L15.3832 0.398125C25.146 3.10333 27.4954 16.0264 19.161 21.9742C12.0137 27.0747 1.98477 23.0606 0.255917 14.5476L0.0101875 12.9063C0.03425 12.3827 -0.0218959 11.8424 0.0101875 11.3203C0.360917 5.63938 5.1355 0.465208 10.8894 0H13.4043H13.4035ZM9.18311 4.28167C7.99384 4.39688 7.16477 5.18073 7.01383 6.37729L7.00508 18.8964C6.98759 19.713 7.79186 20.1994 8.50206 19.7874L12.1661 16.1911L15.6727 19.7415C16.3391 20.2264 17.22 19.7714 17.2324 18.951V6.47865C17.1507 5.42938 16.4646 4.58427 15.4401 4.33417C13.4538 4.33635 11.1519 4.09063 9.18384 4.28167H9.18311Z" fill="white"/>
<path d="M15.3169 10.2266V16.625L12.7743 14.0547C12.366 13.7601 11.9255 13.7601 11.5172 14.0547L8.91992 16.625V10.2266H15.3162H15.3169Z" fill="white"/>
<path d="M15.3171 6.17969H8.9209V8.3125H15.3171V6.17969Z" fill="white"/>
</svg>
