<svg width="32" height="27" viewBox="0 0 32 27" fill="none" xmlns="http://www.w3.org/2000/svg">
<path d="M31 14.5V13C31 7.3435 31 4.5145 29.242 2.758C27.484 1.0015 24.6565 1 19 1H13C7.3435 1 4.5145 1 2.758 2.758C1.0015 4.516 1 7.3435 1 13C1 18.6565 1 21.4855 2.758 23.242C4.516 24.9985 7.3435 25 13 25H17.5M13 19H7M1 10H31" stroke="black" stroke-width="1.5" stroke-linecap="round"/>
<path d="M25 25C27.4853 25 29.5 22.9853 29.5 20.5C29.5 18.0147 27.4853 16 25 16C22.5147 16 20.5 18.0147 20.5 20.5C20.5 22.9853 22.5147 25 25 25Z" stroke="black" stroke-width="1.5"/>
<path d="M28.75 24.25L30.25 25.75" stroke="black" stroke-width="1.5" stroke-linecap="round"/>
</svg>
