<svg width="24" height="26" viewBox="0 0 24 26" fill="none" xmlns="http://www.w3.org/2000/svg">
<g clip-path="url(#clip0_88_1633)">
<path d="M23.9995 0V19.8047H13.7694C13.971 19.2461 14.2485 18.7024 14.5665 18.2041C15.3424 16.988 16.361 16.5303 16.5633 14.904C16.8567 12.5403 14.816 9.82177 12.4713 11.5524L9.0293 15.0313V0H23.9995ZM18.1921 3.30417L15.7402 5.78771L14.7488 4.8276L13.7202 5.8649L15.7402 7.92052L19.2574 4.34146L18.1921 3.30417ZM22.5024 10.6641H18.0112V12.1875H22.5024V10.6641ZM22.5024 13.7109H18.0112V15.2344H22.5024V13.7109Z" fill="white"/>
<path d="M5.5359 26H5.486L0 20.345L3.0148 17.2142C3.13058 15.8573 3.60299 14.6067 4.48661 13.583C5.40416 12.5193 6.56989 11.5449 7.53202 10.5124V16.5303L6.68434 17.4444C6.96712 17.6367 7.42689 18.3293 7.68173 18.4627C7.72032 18.483 7.74294 18.4966 7.78087 18.4627L13.3441 12.7962C14.1545 11.9972 14.9197 13.1909 15.0541 13.9533C15.3129 15.4246 14.4366 15.8444 13.6987 16.814C13.0925 17.6103 12.507 18.7403 12.185 19.6916C11.9514 20.3809 11.8789 21.0573 11.5143 21.7005C10.7318 23.0791 9.31921 23.6999 7.7822 23.641L5.5359 26.002V26Z" fill="white"/>
</g>
<defs>
<clipPath id="clip0_88_1633">
<rect width="24" height="26" fill="white"/>
</clipPath>
</defs>
</svg>
