<svg width="39" height="35" viewBox="0 0 39 35" fill="none" xmlns="http://www.w3.org/2000/svg">
<g clip-path="url(#clip0_37_6)">
<path d="M18.5561 31.531L24.1516 21.2753L25.7018 18.4329L26.0299 17.8322L27.6078 14.9426L25.6395 11.4877L21.0651 3.45483L19.0967 0L17.1907 3.4903L19.1591 6.94514L23.7335 14.978L22.174 17.8393L20.2935 21.2847L14.7002 31.5357L5.73401 31.5499L11.3295 21.2965L13.2078 17.8488L9.35192 17.8559L7.47134 21.3013L1.87813 31.5546L-0.00244141 35L3.85112 34.9953L12.8197 34.9834L16.6755 34.9764L18.5561 31.531ZM37.0407 31.5026L31.2119 21.2658L29.5854 18.4116L28.026 21.2682L27.6794 21.9043L22.4305 31.5239L21.4463 33.3258L20.5499 34.9693L35.1116 34.9456H38.9999L37.0407 31.5002V31.5026Z" fill="url(#paint0_linear_37_6)"/>
</g>
<defs>
<linearGradient id="paint0_linear_37_6" x1="-0.000131117" y1="17.4988" x2="38.9999" y2="17.4988" gradientUnits="userSpaceOnUse">
<stop stop-color="#00FFFF"/>
<stop offset="1" stop-color="#29ABE2"/>
</linearGradient>
<clipPath id="clip0_37_6">
<rect width="39" height="35" fill="white"/>
</clipPath>
</defs>
</svg>
