<svg width="35" height="35" viewBox="0 0 35 35" fill="none" xmlns="http://www.w3.org/2000/svg">
<g clip-path="url(#clip0_37_18)">
<path d="M11.2951 13.1794C13.0976 13.0808 15.4311 13.0492 17.2264 13.154C20.508 13.3451 21.7988 14.8511 21.991 18.0766C22.0897 19.7391 22.0826 21.9802 21.9951 23.6458C21.8283 26.8001 20.6076 28.5766 17.2997 28.7901C15.2917 28.9192 12.1221 28.9467 10.1304 28.7901C7.52231 28.5837 6.2152 26.9445 6.04431 24.4095C5.91817 22.5273 5.91817 19.6506 6.04431 17.7684C6.27216 14.3783 8.16315 13.3523 11.2961 13.1804L11.2951 13.1794Z" fill="url(#paint0_linear_37_18)"/>
<path d="M23.5931 22.1562C23.4934 19.3212 24.1119 15.8039 22.0694 13.4977C19.8539 10.9962 15.9824 11.645 12.9888 11.5545C13.0813 10.3322 13.1241 9.19741 13.7964 8.12972C14.5888 6.87187 16.0892 6.32379 17.5296 6.21804C19.4033 6.07975 22.4437 6.07975 24.3174 6.21804C26.1433 6.35328 27.7281 7.14235 28.4371 8.88727C29.1461 10.6322 29.0759 15.6422 28.9375 17.6973C28.8846 18.4802 28.6558 19.4676 28.2611 20.1479C27.2754 21.846 25.4078 22.0992 23.5942 22.1562H23.5931Z" fill="url(#paint1_linear_37_18)"/>
<path d="M24.6609 31.9932C28.6148 31.2631 31.7051 27.7163 32.2686 23.774C32.4486 22.5161 32.056 20.5333 34.064 20.877C35.1575 21.0641 35.015 22.4124 34.9632 23.2645C34.7109 27.3502 32.1679 31.3282 28.629 33.3293C26.8764 34.3207 24.1218 35.1658 22.1006 34.9715C21.1922 34.8841 20.8871 34.0004 21.1098 33.2103C21.2299 32.7843 22.7414 30.3052 23.07 29.9076C23.895 28.9101 25.4798 29.7073 25.1787 31.0241C25.142 31.1858 24.5775 31.9189 24.6609 31.9932Z" fill="url(#paint2_linear_37_18)"/>
<path d="M10.2423 2.93863C6.43385 3.73381 3.36088 6.78843 2.63561 10.625C2.49625 11.3622 2.53491 12.0262 2.45251 12.7299C2.31621 13.8901 0.836173 14.5307 0.184145 13.4132C-0.167808 12.8112 0.0722521 11.1883 0.196351 10.4745C1.02944 5.69125 4.69748 1.69096 9.3868 0.442265C10.3704 0.179918 12.0336 -0.112935 13.0223 0.04366C13.776 0.162632 13.893 1.31371 13.6794 1.91161C13.5543 2.26039 12.0427 4.58695 11.7671 4.88082C11.0499 5.64651 10.0124 5.46144 9.70417 4.4273C9.48038 3.67788 9.88625 3.51112 10.2413 2.9366L10.2423 2.93863Z" fill="url(#paint3_linear_37_18)"/>
</g>
<defs>
<linearGradient id="paint0_linear_37_18" x1="14.0063" y1="13.089" x2="14.0063" y2="28.8975" gradientUnits="userSpaceOnUse">
<stop stop-color="#00AEEF"/>
<stop offset="1" stop-color="#16D3F0"/>
</linearGradient>
<linearGradient id="paint1_linear_37_18" x1="21.008" y1="6.11432" x2="21.008" y2="22.1562" gradientUnits="userSpaceOnUse">
<stop stop-color="#00AEEF"/>
<stop offset="1" stop-color="#16D3F0"/>
</linearGradient>
<linearGradient id="paint2_linear_37_18" x1="28.0195" y1="20.8376" x2="28.0195" y2="34.9995" gradientUnits="userSpaceOnUse">
<stop stop-color="#00AEEF"/>
<stop offset="1" stop-color="#16D3F0"/>
</linearGradient>
<linearGradient id="paint3_linear_37_18" x1="6.88744" y1="-0.000236511" x2="6.88744" y2="13.9944" gradientUnits="userSpaceOnUse">
<stop stop-color="#00AEEF"/>
<stop offset="1" stop-color="#16D3F0"/>
</linearGradient>
<clipPath id="clip0_37_18">
<rect width="35" height="35" fill="white"/>
</clipPath>
</defs>
</svg>
