<svg width="335" height="331" viewBox="0 0 335 331" fill="none" xmlns="http://www.w3.org/2000/svg">
<path d="M335 9.34597C333.39 6.25958 331.933 3.14376 330.629 0H329.278C330.936 4.02422 332.843 8.00358 335 11.9337V9.34597Z" fill="#AAAAAA" fill-opacity="0.1"/>
<path d="M335 22.3035V20.0946C334.521 19.3385 334.05 18.5794 333.587 17.8166C330.056 11.9866 327.073 6.04185 324.641 0.000735283H323.294C325.759 6.16322 328.791 12.2257 332.392 18.1697C333.233 19.5584 334.103 20.9369 335 22.3035Z" fill="#AAAAAA" fill-opacity="0.1"/>
<path d="M335 31.42V29.4472C332.598 26.1586 330.358 22.8015 328.286 19.3797C324.448 13.0443 321.244 6.5766 318.671 0H317.325C319.929 6.69797 323.183 13.2834 327.09 19.7335C329.504 23.718 332.142 27.615 335 31.42Z" fill="#AAAAAA" fill-opacity="0.1"/>
<path d="M335 39.7075V37.8973C330.532 32.4395 326.521 26.7838 322.984 20.9442C318.841 14.1035 315.415 7.11429 312.709 0H311.367C314.103 7.23492 317.575 14.3426 321.787 21.2973C325.64 27.6576 330.05 33.7995 334.999 39.7075H335Z" fill="#AAAAAA" fill-opacity="0.1"/>
<path d="M335 47.3977V45.7067C328.366 38.3416 322.582 30.5969 317.682 22.5073C313.234 15.1627 309.593 7.64978 306.76 -0.000735283H305.418C308.279 7.77115 311.97 15.4018 316.488 22.8603C321.683 31.4384 327.868 39.6317 335 47.3977H335Z" fill="#AAAAAA" fill-opacity="0.1"/>
<path d="M335 54.6349V53.0372C326.129 43.9634 318.567 34.2857 312.38 24.0718C307.626 16.2234 303.772 8.1882 300.819 0H299.481C302.461 8.30957 306.362 16.4632 311.185 24.4249C317.653 35.1029 325.616 45.1984 335 54.6349Z" fill="#AAAAAA" fill-opacity="0.1"/>
<path d="M335 61.516V59.9904C323.836 49.3646 314.493 37.876 307.079 25.6356C302.02 17.2841 297.955 8.72516 294.889 -0.000735283H293.551C296.643 8.84653 300.755 17.5231 305.883 25.9879C313.567 38.6748 323.313 50.5577 335 61.5153V61.516Z" fill="#AAAAAA" fill-opacity="0.1"/>
<path d="M335 68.1095V66.6443C321.5 54.5929 310.372 41.3904 301.778 27.2001C296.415 18.3455 292.142 9.26432 288.967 0H287.633C290.832 9.38495 295.151 18.5853 300.582 27.5532C309.438 42.1738 320.969 55.7522 335.001 68.1095H335Z" fill="#AAAAAA" fill-opacity="0.1"/>
<path d="M335 74.4654V73.0502C319.129 59.6793 306.214 44.8409 296.476 28.7639C290.808 19.4069 286.333 9.80201 283.054 0H281.721C285.022 9.92338 289.544 19.6467 295.28 29.117C305.271 45.6125 318.591 60.8099 335 74.4654Z" fill="#AAAAAA" fill-opacity="0.1"/>
<path d="M335 80.6228V79.2495C316.73 64.648 302.023 48.2392 291.174 30.3277C285.202 20.4683 280.52 10.3404 277.143 0H275.813C279.212 10.4625 283.939 20.7088 289.978 30.6808C301.074 49.0005 316.186 65.7542 335 80.6228Z" fill="#AAAAAA" fill-opacity="0.1"/>
<path d="M335 86.6109V85.2737C314.307 69.5174 297.806 51.5948 285.873 31.8915C279.597 21.5312 274.719 10.8789 271.248 0H269.918C273.411 11.001 278.333 21.771 284.677 32.2453C296.852 52.3465 313.758 70.6038 335 86.6109Z" fill="#AAAAAA" fill-opacity="0.1"/>
<path d="M335 92.4535V91.1471C311.864 74.3021 293.566 54.9122 280.57 33.4567C273.991 22.5948 268.915 11.4195 265.353 0.000735283H264.023C267.604 11.5409 272.727 22.8346 279.375 33.8098C292.608 55.6573 311.311 75.3716 335 92.4542V92.4535Z" fill="#AAAAAA" fill-opacity="0.1"/>
<path d="M334.098 97.542C334.398 97.7516 334.699 97.9598 335 98.1687V96.8903C309.404 79.0134 289.307 58.1972 275.269 35.0198C268.386 23.6569 263.113 11.9579 259.464 0H258.138C261.805 12.0793 267.122 23.8967 274.073 35.3729C288.18 58.6635 308.375 79.5798 334.098 97.542Z" fill="#AAAAAA" fill-opacity="0.1"/>
<path d="M330.029 100.383C331.669 101.529 333.326 102.659 335 103.773V102.517C333.637 101.602 332.286 100.677 330.947 99.7421C304.815 81.4937 284.299 60.2442 269.967 36.5836C262.781 24.7198 257.316 12.4971 253.586 0H252.259C256.008 12.6192 261.517 24.9596 268.772 36.9367C283.169 60.7054 303.779 82.052 330.029 100.383V100.383Z" fill="#AAAAAA" fill-opacity="0.1"/>
<path d="M325.96 103.224C328.92 105.291 331.934 107.309 335 109.276V108.042C332.25 106.262 329.542 104.443 326.878 102.584C300.217 83.9666 279.286 62.2868 264.665 38.1481C257.176 25.7834 251.516 13.0377 247.706 0.000735283H246.38C250.208 13.1598 255.912 26.024 263.469 38.5012C278.156 62.7488 299.181 84.5249 325.96 103.225V103.224Z" fill="#AAAAAA" fill-opacity="0.1"/>
<path d="M321.892 106.066C326.153 109.041 330.523 111.917 335 114.692V113.476C330.843 110.88 326.778 108.197 322.81 105.425C295.621 86.4388 274.274 64.3302 259.364 39.7126C251.571 26.8478 245.721 13.5776 241.834 0.000735283H240.511C244.414 13.6997 250.307 27.0876 258.167 40.0657C273.143 64.7914 294.583 86.9971 321.891 106.066L321.892 106.066Z" fill="#AAAAAA" fill-opacity="0.1"/>
<path d="M317.823 108.906C323.369 112.779 329.098 116.486 335 120.024V118.828C329.42 115.459 323.998 111.937 318.741 108.266C291.024 88.9103 269.263 66.3721 254.062 41.2757C245.967 27.9107 239.931 14.1168 235.971 0H234.648C238.623 14.2389 244.702 28.1512 252.866 41.6288C268.132 66.8326 289.987 89.4686 317.823 108.906Z" fill="#AAAAAA" fill-opacity="0.1"/>
<path d="M313.754 111.748C320.57 116.508 327.657 121.021 335 125.284V124.104C327.983 120.001 321.203 115.668 314.672 111.107C286.426 91.3832 264.25 68.4148 248.76 42.8402C240.362 28.9757 234.136 14.6574 230.106 0.000735283H228.783C232.829 14.7795 239.097 29.2155 247.564 43.1933C263.12 68.8759 285.389 91.9408 313.754 111.748Z" fill="#AAAAAA" fill-opacity="0.1"/>
<path d="M309.686 114.589C317.759 120.227 326.204 125.525 335 130.477V129.31C326.533 124.511 318.395 119.388 310.604 113.948C281.829 93.8547 259.238 70.4567 243.458 44.404C234.757 30.0394 228.342 15.198 224.244 0H222.924C227.037 15.3194 233.493 30.2791 242.262 44.7571C258.108 70.9178 280.792 94.413 309.685 114.589L309.686 114.589Z" fill="#AAAAAA" fill-opacity="0.1"/>
<path d="M266.498 84.3219C277.959 96.168 291.12 107.307 305.617 117.43C314.858 123.883 324.691 129.956 335 135.586V134.435C325.023 128.952 315.5 123.05 306.535 116.789C292.097 106.707 278.988 95.6127 267.574 83.8143C256.05 71.9035 246.152 59.1696 238.156 45.9678C229.153 31.1037 222.557 15.7379 218.394 0H217.075C221.252 15.8593 227.89 31.3435 236.961 46.3209C244.99 59.5771 254.928 72.3625 266.498 84.3219Z" fill="#AAAAAA" fill-opacity="0.1"/>
<path d="M261.727 86.5683C273.393 98.627 286.791 109.966 301.548 120.271C312.007 127.575 323.212 134.402 335 140.66V139.52C323.546 133.402 312.652 126.744 302.467 119.631C287.768 109.367 274.423 98.0724 262.803 86.0615C251.072 73.9358 240.996 60.9724 232.854 47.5323C223.549 32.1688 216.77 16.2786 212.544 0.000735283H211.225C215.464 16.4007 222.285 32.4093 231.66 47.8854C239.833 61.3792 249.949 74.3941 261.728 86.569L261.727 86.5683Z" fill="#AAAAAA" fill-opacity="0.1"/>
<path d="M256.956 88.8147C268.828 101.086 282.462 112.625 297.48 123.112C309.148 131.26 321.727 138.825 335 145.683V144.554C322.063 137.829 309.795 130.43 298.398 122.472C283.438 112.026 269.857 100.531 258.032 88.3079C246.092 75.9674 235.838 62.7745 227.553 49.0961C217.946 33.2331 210.981 16.8192 206.695 0.000735283H205.375C209.674 16.9413 216.681 33.4737 226.357 49.4492C234.675 63.1813 244.97 76.4257 256.956 88.8154V88.8147Z" fill="#AAAAAA" fill-opacity="0.1"/>
<path d="M252.184 91.0611C264.262 103.545 278.133 115.285 293.411 125.954C306.279 134.939 320.235 143.228 334.999 150.659V149.539C320.572 142.236 306.927 134.11 294.329 125.313C279.109 114.685 265.292 102.99 253.26 90.5543C241.113 77.9991 230.68 64.5766 222.251 50.6599C212.341 34.2982 205.193 17.3598 200.848 0.000735283H199.531C203.888 17.482 211.077 34.5387 221.055 51.0137C229.516 64.9841 239.99 78.458 252.184 91.0618L252.184 91.0611Z" fill="#AAAAAA" fill-opacity="0.1"/>
<path d="M247.413 93.3074C259.697 106.005 273.804 117.944 289.342 128.794C303.402 138.612 318.738 147.611 335 155.59V154.48C319.077 146.623 304.052 137.784 290.261 128.154C274.781 117.344 260.727 105.449 248.489 92.7999C236.135 80.0299 225.523 66.378 216.95 52.2237C206.737 35.3633 199.413 17.9005 195.012 0H193.695C198.108 18.0218 205.473 35.6031 215.754 52.5768C224.36 66.7855 235.012 80.4889 247.413 93.3082V93.3074Z" fill="#AAAAAA" fill-opacity="0.1"/>
<path d="M242.642 95.5538C255.131 108.464 269.475 120.603 285.274 131.636C300.518 142.281 317.237 151.978 335 160.481V159.381C317.577 150.995 301.169 141.454 286.192 130.995C270.451 120.004 256.161 107.909 243.718 95.047C231.155 82.0623 220.365 68.1801 211.648 53.7882C201.133 36.4291 193.63 18.4418 189.174 0.000735283H187.857C192.325 18.5632 199.868 36.6689 210.451 54.1413C219.202 68.5876 230.032 82.5212 242.641 95.5545L242.642 95.5538Z" fill="#AAAAAA" fill-opacity="0.1"/>
<path d="M237.871 97.8009C250.566 110.923 265.146 123.263 281.205 134.477C297.264 145.691 314.935 155.872 333.727 164.738C334.15 164.938 334.575 165.136 335 165.334V164.243C334.818 164.158 334.636 164.073 334.454 163.987C315.731 155.154 298.124 145.01 282.123 133.837C266.123 122.663 251.596 110.369 238.947 97.2941C226.177 84.0939 215.208 69.983 206.346 55.352C195.53 37.4935 187.846 18.9825 183.338 0.000735283H182.021C186.541 19.1046 194.266 37.734 205.15 55.7051C214.045 70.3897 225.054 84.5528 237.871 97.8009Z" fill="#AAAAAA" fill-opacity="0.1"/>
<path d="M233.1 100.047C246.001 113.382 260.817 125.922 277.136 137.318C293.456 148.714 311.414 159.06 330.51 168.069C331.998 168.772 333.496 169.465 335 170.152V169.069C333.74 168.491 332.485 167.907 331.237 167.318C312.209 158.342 294.316 148.033 278.054 136.677C261.793 125.322 247.03 112.828 234.175 99.5398C221.197 86.1255 210.05 71.7843 201.045 56.9158C189.926 38.5586 182.06 19.5231 177.501 0H176.186C180.756 19.6452 188.661 38.7991 199.849 57.2689C208.887 72.1911 220.075 86.5837 233.1 100.047Z" fill="#AAAAAA" fill-opacity="0.1"/>
<path d="M228.328 102.294C241.435 115.842 256.488 128.582 273.068 140.159C289.648 151.737 307.892 162.248 327.293 171.401C329.839 172.603 332.409 173.781 335 174.938V173.861C332.655 172.809 330.328 171.739 328.02 170.65C308.687 161.53 290.507 151.056 273.986 139.519C257.464 127.982 242.465 115.287 229.404 101.787C216.218 88.1578 204.892 73.5872 195.742 58.4803C184.322 39.6251 176.283 20.0645 171.675 0.000735283H170.361C174.981 20.1866 183.059 39.8656 194.548 58.8334C203.73 73.9939 215.096 88.616 228.329 102.294L228.328 102.294Z" fill="#AAAAAA" fill-opacity="0.1"/>
<path d="M223.557 104.54C236.87 118.301 252.159 131.241 269 143C285.84 154.76 304.37 165.436 324.076 174.733C327.673 176.43 331.316 178.083 335 179.692V178.622C331.563 177.113 328.163 175.567 324.802 173.982C305.165 164.717 286.699 154.078 269.917 142.359C253.135 130.641 237.9 117.746 224.633 104.033C211.24 90.1887 199.736 75.3878 190.441 60.0434C178.719 40.6895 170.506 20.6044 165.85 0H164.536C169.202 20.7272 177.454 40.93 189.246 60.3965C198.573 75.7953 210.117 90.6469 223.558 104.54H223.557Z" fill="#AAAAAA" fill-opacity="0.1"/>
<path d="M218.786 106.786C232.305 120.76 247.83 133.9 264.931 145.842C282.032 157.783 300.849 168.625 320.859 178.065C325.502 180.255 330.218 182.373 335 184.418V183.356C330.466 181.407 325.993 179.392 321.586 177.314C301.644 167.906 282.891 157.101 265.849 145.201C248.807 133.3 233.335 120.205 219.862 106.28C206.26 92.2203 194.579 77.1907 185.14 61.6079C173.115 41.756 164.728 21.1465 160.026 0.000735283H158.712C163.424 21.2686 171.852 41.9973 183.944 61.9617C193.415 77.5989 205.138 92.68 218.786 106.788V106.786Z" fill="#AAAAAA" fill-opacity="0.1"/>
<path d="M214.015 109.033C227.739 123.219 243.501 136.559 260.862 148.682C278.223 160.806 297.326 171.812 317.642 181.396C323.323 184.076 329.113 186.652 335 189.117V188.059C329.364 185.687 323.816 183.214 318.369 180.645C298.122 171.093 279.083 160.124 261.781 148.042C244.478 135.959 228.77 122.664 215.091 108.526C201.281 94.2519 189.421 78.9928 179.837 63.1717C167.512 42.8218 158.944 21.6879 154.197 0H152.883C157.64 21.8092 166.248 43.0616 178.642 63.5248C188.257 79.3996 200.159 94.7109 214.015 109.034V109.033Z" fill="#AAAAAA" fill-opacity="0.1"/>
<path d="M209.244 111.279C223.174 125.678 239.173 139.218 256.794 151.523C274.415 163.828 293.805 175 314.425 184.727C321.14 187.895 328.006 190.919 335 193.79V192.739C328.257 189.958 321.634 187.034 315.151 183.976C294.6 174.281 275.274 163.146 257.712 150.882C240.149 138.618 224.203 125.122 210.319 110.772C196.302 96.2835 184.263 80.7942 174.536 64.7348C161.908 43.8869 153.165 22.2285 148.374 0H147.061C151.861 22.3513 160.643 44.1275 173.34 65.0886C183.1 81.2017 195.179 96.7425 209.243 111.279H209.244Z" fill="#AAAAAA" fill-opacity="0.1"/>
<path d="M204.473 113.526C218.609 128.137 234.844 141.878 252.725 154.364C270.607 166.851 290.284 178.188 311.208 188.059C318.953 191.713 326.894 195.177 335 198.441V197.394C327.146 194.217 319.447 190.852 311.935 187.308C291.078 177.469 271.467 166.17 253.643 153.724C235.82 141.277 219.638 127.583 205.548 113.019C191.324 98.3151 179.106 82.597 169.234 66.3C156.305 44.9535 147.39 22.7699 142.557 0H141.246C146.087 22.892 155.042 45.194 168.039 66.6524C177.943 83.0038 190.201 98.7741 204.473 113.526Z" fill="#AAAAAA" fill-opacity="0.1"/>
<path d="M199.701 115.773C214.043 130.597 230.514 144.537 248.656 157.206C266.798 169.874 286.761 181.376 307.991 191.392C316.76 195.529 325.778 199.427 335 203.07V202.028C326.031 198.469 317.256 194.669 308.717 190.641C287.556 180.658 267.658 169.194 249.574 156.566C231.49 143.938 215.073 130.043 200.777 115.266C186.343 100.347 173.948 84.3999 163.932 67.8646C150.702 46.0193 141.614 23.3112 136.74 0H135.428C140.311 23.4333 149.437 46.2598 162.736 68.2162C172.784 84.8051 185.221 100.806 199.701 115.772V115.773Z" fill="#AAAAAA" fill-opacity="0.1"/>
<path d="M194.93 118.019C209.478 133.056 226.185 147.196 244.588 160.047C262.99 172.897 283.24 184.565 304.774 194.724C314.564 199.342 324.659 203.666 335 207.676V206.64C324.913 202.712 315.061 198.483 305.5 193.973C284.035 183.846 263.85 172.216 245.506 159.407C227.162 146.597 210.507 132.501 196.006 117.512C181.365 102.379 168.791 86.2012 158.631 69.4284C145.099 47.0859 135.837 23.8533 130.924 0H129.613C134.534 23.9754 143.835 47.3264 157.435 69.7807C167.627 86.608 180.242 102.837 194.93 118.019Z" fill="#AAAAAA" fill-opacity="0.1"/>
<path d="M190.158 120.266C204.912 135.516 221.856 149.856 240.519 162.888C259.182 175.921 279.717 187.752 301.556 198.055C312.363 203.154 323.537 207.898 335 212.262V211.229C323.791 206.944 312.861 202.294 302.284 197.303C280.513 187.033 260.042 175.238 241.437 162.247C222.833 149.255 205.942 134.96 191.235 119.757C176.386 104.409 163.633 88.0019 153.329 70.9907C139.495 48.1517 130.063 24.3947 125.112 0H123.801C128.761 24.5161 138.231 48.3922 152.133 71.3445C162.469 88.4094 175.263 104.869 190.158 120.266Z" fill="#AAAAAA" fill-opacity="0.1"/>
<path d="M185.387 122.512C200.347 137.975 217.527 152.515 236.45 165.729C255.373 178.943 276.196 190.94 298.339 201.386C310.16 206.963 322.413 212.123 334.999 216.831V215.801C322.667 211.17 310.658 206.104 299.065 200.635C276.99 190.221 256.233 178.261 237.368 165.088C218.503 151.915 201.376 137.419 186.462 122.004C171.406 106.442 158.474 89.8047 148.027 72.5552C133.892 49.2182 124.29 24.9361 119.301 0H117.99C122.987 25.0582 132.629 49.4588 146.832 72.9083C157.312 90.2115 170.285 106.9 185.387 122.512Z" fill="#AAAAAA" fill-opacity="0.1"/>
<path d="M180.616 124.758C195.781 140.434 213.198 155.174 232.382 168.57C251.566 181.966 272.674 194.128 295.122 204.718C307.953 210.772 321.287 216.341 335 221.381V220.356C321.542 215.391 308.453 209.914 295.85 203.967C273.47 193.41 252.425 181.285 233.3 167.93C214.174 154.574 196.811 139.879 181.692 124.252C166.428 108.474 153.317 91.6076 142.725 74.1197C128.289 50.2848 118.515 25.4774 113.49 0H112.179C117.213 25.5995 127.026 50.5253 141.53 74.4721C152.155 92.0136 165.305 108.932 180.616 124.758Z" fill="#AAAAAA" fill-opacity="0.1"/>
<path d="M175.845 127.005C191.216 142.893 208.869 157.833 228.313 171.412C247.757 184.989 269.152 197.316 291.905 208.05C305.743 214.579 320.159 220.552 334.999 225.913V224.893C320.413 219.603 306.243 213.72 292.631 207.299C269.947 196.597 248.616 184.307 229.23 170.77C209.844 157.233 192.244 142.337 176.919 126.497C161.448 110.505 148.158 93.4089 137.422 75.6828C122.686 51.3513 112.743 26.0188 107.682 0H106.372C111.441 26.1409 121.423 51.5919 136.228 76.0366C146.997 93.8157 160.326 110.964 175.845 127.005Z" fill="#AAAAAA" fill-opacity="0.1"/>
<path d="M171.074 129.251C186.651 145.352 204.54 160.493 224.245 174.252C243.95 188.012 265.632 200.504 288.689 211.382C303.532 218.384 319.029 224.756 335 230.43V229.413C319.285 223.808 304.032 217.527 289.416 210.631C266.427 199.785 244.809 187.331 225.164 173.612C205.517 159.893 187.681 144.797 172.15 128.744C156.471 112.537 143.004 95.211 132.123 77.2473C117.083 52.4179 106.97 26.5609 101.875 0H100.566C105.669 26.683 115.82 52.6584 130.927 77.6004C141.84 95.6178 155.347 112.996 171.074 129.251Z" fill="#AAAAAA" fill-opacity="0.1"/>
<path d="M166.303 131.498C182.086 147.812 200.211 163.153 220.176 177.095C240.14 191.036 262.109 203.693 285.471 214.715C301.316 222.189 317.897 228.955 335 234.932V233.918C318.153 228.009 301.817 221.332 286.198 213.964C262.905 202.974 241 190.354 221.094 176.454C201.187 162.553 183.115 147.257 167.378 130.991C151.49 114.569 137.845 97.0139 126.82 78.8118C111.48 53.4844 101.198 27.1023 96.0688 0H94.7593C99.8959 27.2244 110.216 53.725 125.625 79.1642C136.682 97.4199 150.368 115.028 166.303 131.497V131.498Z" fill="#AAAAAA" fill-opacity="0.1"/>
<path d="M161.531 133.745C177.52 150.271 195.882 165.812 216.107 179.935C236.332 194.059 258.587 206.881 282.254 218.046C299.098 225.993 316.764 233.148 335 239.419V238.408C317.02 232.202 299.6 225.135 282.981 217.295C259.383 206.162 237.193 193.377 217.026 179.295C196.859 165.212 178.55 149.716 162.607 133.238C146.512 116.601 132.688 98.816 121.519 80.3764C105.877 54.551 95.4258 27.6444 90.2638 0H88.9551C94.1245 27.7658 104.613 54.7915 120.323 80.7287C131.525 99.2228 145.389 117.059 161.531 133.745Z" fill="#AAAAAA" fill-opacity="0.1"/>
<path d="M115.021 82.2925C126.367 101.024 140.41 119.091 156.76 135.991C172.954 152.73 191.553 168.471 212.039 182.776C232.524 197.081 255.065 210.068 279.037 221.377C296.879 229.794 315.629 237.334 335 243.891V242.883C315.886 236.391 297.381 228.937 279.764 220.626C255.861 209.349 233.383 196.399 212.956 182.135C192.529 167.871 173.984 152.175 157.836 135.483C141.532 118.632 127.53 100.617 116.217 81.9394C100.274 55.6176 89.6563 28.1858 84.4623 0H83.1812C84.6016 7.71156 86.4217 15.3724 88.6424 22.9515C94.5905 43.2485 103.465 63.2136 115.021 82.2925Z" fill="#AAAAAA" fill-opacity="0.1"/>
<path d="M109.72 83.8563C121.21 102.826 135.432 121.122 151.99 138.237C168.39 155.189 187.225 171.13 207.971 185.617C228.717 200.104 251.545 213.257 275.821 224.709C294.659 233.596 314.496 241.517 335.001 248.351V247.346C314.752 240.574 295.16 232.739 276.548 223.958C252.34 212.537 229.576 199.422 208.889 184.976C188.202 170.53 169.42 154.634 153.065 137.73C136.554 120.663 122.373 102.419 110.916 83.5032C99.2472 64.2375 90.2848 44.0767 84.2786 23.5797C81.9969 15.7938 80.1328 7.92414 78.6886 0H77.3799C78.8315 7.98519 80.7075 15.916 83.0071 23.7614C89.0304 44.3165 98.0181 64.5354 109.721 83.8563H109.72Z" fill="#AAAAAA" fill-opacity="0.1"/>
<path d="M104.418 85.4201C116.052 104.628 130.452 123.154 147.217 140.484C163.824 157.649 182.895 173.79 203.902 188.458C224.908 203.127 248.023 216.445 272.603 228.041C292.433 237.395 313.358 245.695 335 252.797V251.795C313.615 244.752 292.936 236.538 273.331 227.29C248.818 215.726 225.768 202.445 204.82 187.817C183.872 173.189 164.854 157.093 148.295 139.976C131.576 122.695 117.216 104.221 105.615 85.067C93.799 65.5586 84.7242 45.144 78.6421 24.3896C76.283 16.3382 74.3638 8.19703 72.889 0H71.5811C73.0632 8.25808 74.9936 16.4595 77.3706 24.5712C83.4698 45.3845 92.5707 65.8572 104.42 85.4201H104.418Z" fill="#AAAAAA" fill-opacity="0.1"/>
<path d="M200.75 190.658C190.964 183.824 181.594 176.673 172.692 169.25C176.491 172.628 180.193 176.057 183.797 179.532C189.006 183.548 194.353 187.473 199.833 191.299C221.099 206.15 244.501 219.632 269.386 231.372C290.207 241.195 312.221 249.868 335 257.232V256.233C312.477 248.927 290.71 240.339 270.113 230.621C245.296 218.913 221.959 205.468 200.75 190.658V190.658Z" fill="white" fill-opacity="0.1"/>
<path d="M162.307 161.748C165.371 164.473 168.498 167.164 171.685 169.822C168.621 167.097 165.494 164.406 162.307 161.748Z" fill="white" fill-opacity="0.1"/>
<path d="M99.1158 86.9839C110.894 106.43 125.473 125.186 142.446 142.73C145.294 145.674 148.215 148.587 151.203 151.469C155.329 154.649 159.368 157.888 163.315 161.179C156.389 155.02 149.781 148.693 143.521 142.223C126.595 124.727 112.056 106.023 100.311 86.6308C88.3481 66.8804 79.1602 46.2113 73.0029 25.1987C70.5656 16.881 68.5935 8.46919 67.0883 -0.000735283H65.7803C67.2922 8.53024 69.2762 17.0031 71.7306 25.3803C77.905 46.4518 87.119 67.1783 99.115 86.9839H99.1158Z" fill="white" fill-opacity="0.1"/>
<path d="M0 321.653C1.61023 324.74 3.06711 327.856 4.37063 330.999H5.7218C4.06392 326.974 2.15666 322.995 0 319.066V321.653Z" fill="#AAAAAA" fill-opacity="0.1"/>
<path d="M0 308.697V310.906C0.478678 311.662 0.949911 312.421 1.41221 313.184C4.94386 319.014 7.92684 324.958 10.3589 330.999H11.7056C9.24079 324.837 6.20867 318.775 2.60779 312.83C1.76657 311.442 0.897056 310.063 0 308.697Z" fill="#AAAAAA" fill-opacity="0.1"/>
<path d="M0 299.58V301.553C2.40232 304.841 4.64161 308.198 6.71415 311.62C10.5518 317.955 13.7558 324.423 16.3286 331H17.6753C15.0713 324.302 11.8166 317.716 7.90972 311.266C5.49623 307.282 2.85792 303.385 0.000744444 299.58H0Z" fill="#AAAAAA" fill-opacity="0.1"/>
<path d="M0 291.292V293.102C4.46816 298.56 8.47848 304.216 12.0153 310.055C16.1582 316.896 19.5841 323.885 22.2902 330.999H23.6324C20.8973 323.764 17.4237 316.657 13.2117 309.702C9.35916 303.343 4.94907 297.2 0 291.292Z" fill="#AAAAAA" fill-opacity="0.1"/>
<path d="M-0.000232118 283.602V285.293C6.63351 292.658 12.4178 300.403 17.317 308.492C21.7658 315.837 25.4069 323.35 28.2395 331H29.581C26.7209 323.229 23.0299 315.598 18.5119 308.139C13.3164 299.561 7.13155 291.369 -0.000976562 283.603L-0.000232118 283.602Z" fill="#AAAAAA" fill-opacity="0.1"/>
<path d="M0 276.365V277.962C8.8708 287.036 16.4329 296.714 22.6192 306.928C27.3725 314.776 31.228 322.811 34.1804 330.999H35.5182C32.5389 322.69 28.6373 314.536 23.8148 306.575C17.347 295.897 9.38372 285.801 0 276.365Z" fill="#AAAAAA" fill-opacity="0.1"/>
<path d="M0 269.484V271.009C11.1637 281.635 20.5065 293.124 27.9211 305.364C32.9796 313.716 37.0443 322.275 40.1107 331H41.4484C38.3568 322.153 34.2444 313.477 29.1167 305.012C21.4326 292.325 11.687 280.442 0 269.484V269.484Z" fill="#AAAAAA" fill-opacity="0.1"/>
<path d="M0 262.89V264.355C13.4998 276.407 24.6277 289.609 33.2223 303.799C38.5853 312.654 42.8584 321.735 46.0335 330.999H47.3668C44.1679 321.615 39.8494 312.414 34.4179 303.446C25.562 288.826 14.0313 275.247 0 262.89Z" fill="#AAAAAA" fill-opacity="0.1"/>
<path d="M0 256.534V257.95C15.8708 271.32 28.7862 286.159 38.5243 302.236C44.1917 311.593 48.6666 321.198 51.9458 331H53.2791C49.9775 321.076 45.4558 311.353 39.7198 301.883C29.7286 285.387 16.409 270.19 0 256.534Z" fill="#AAAAAA" fill-opacity="0.1"/>
<path d="M0 250.377V251.75C18.2702 266.351 32.9767 282.76 43.8262 300.672C49.7981 310.531 54.4799 320.659 57.8575 330.999H59.187C55.7879 320.537 51.0614 310.291 45.0218 300.319C33.9258 281.999 18.8143 265.245 0 250.377Z" fill="#AAAAAA" fill-opacity="0.1"/>
<path d="M0 244.388V245.726C20.6933 261.482 37.1939 279.405 49.1274 299.107C55.403 309.467 60.2806 320.119 63.752 330.999H65.0816C61.5894 319.998 56.6671 309.228 50.3229 298.753C38.1476 278.653 21.242 260.396 0 244.388Z" fill="#AAAAAA" fill-opacity="0.1"/>
<path d="M0 238.546V239.853C23.1358 256.698 41.4335 276.087 54.4293 297.543C61.0087 308.405 66.0851 319.58 69.6472 330.999H70.9768C67.3953 319.459 62.2728 308.165 55.6249 297.19C42.3916 275.343 23.689 255.629 0 238.546Z" fill="#AAAAAA" fill-opacity="0.1"/>
<path d="M0.902267 233.458C0.602256 233.248 0.3015 233.04 0 232.832V234.11C25.5962 251.987 45.6925 272.803 59.7312 295.981C66.6136 307.344 71.8873 319.043 75.5358 331H76.8617C73.1945 318.921 67.8777 307.104 60.9268 295.628C46.8196 272.337 26.6251 251.421 0.902267 233.458V233.458Z" fill="#AAAAAA" fill-opacity="0.1"/>
<path d="M4.97066 230.616C3.33064 229.471 1.67351 228.341 0 227.227V228.483C1.36233 229.398 2.7135 230.322 4.05276 231.257C30.185 249.506 50.7011 270.755 65.0324 294.416C72.2186 306.28 77.6835 318.502 81.4139 330.999H82.7405C78.9915 318.38 73.4826 306.04 66.228 294.063C51.8312 270.294 31.2213 248.947 4.97066 230.617V230.616Z" fill="#AAAAAA" fill-opacity="0.1"/>
<path d="M9.03979 227.775C6.07988 225.708 3.06637 223.691 0 221.723V222.957C2.74998 224.737 5.45827 226.556 8.12189 228.416C34.7827 247.033 55.7142 268.713 70.3351 292.851C77.8242 305.216 83.4842 317.962 87.2943 330.999H88.6202C84.7922 317.84 79.0883 304.975 71.5307 292.498C56.8443 268.251 35.8189 246.475 9.03979 227.775V227.775Z" fill="#AAAAAA" fill-opacity="0.1"/>
<path d="M13.1082 224.934C8.84698 221.958 4.47634 219.082 0 216.308V217.523C4.15623 220.12 8.22164 222.803 12.1903 225.574C39.3789 244.561 60.7258 266.669 75.6363 291.287C83.4284 304.152 89.279 317.422 93.1657 330.999H94.4886C90.5855 317.3 84.6932 303.912 76.8326 290.934C61.8566 266.208 40.4166 244.002 13.1089 224.933L13.1082 224.934Z" fill="#AAAAAA" fill-opacity="0.1"/>
<path d="M17.1766 222.093C11.6305 218.221 5.90196 214.514 0 210.976V212.172C5.57961 215.541 11.0014 219.063 16.2587 222.734C43.9758 242.089 65.7374 264.628 80.9375 289.724C89.0326 303.089 95.0693 316.883 99.029 331H100.352C96.3765 316.761 90.2974 302.849 82.1338 289.371C66.8675 264.167 45.0128 241.531 17.1766 222.093Z" fill="#AAAAAA" fill-opacity="0.1"/>
<path d="M21.2457 219.252C14.4296 214.492 7.34246 209.978 0 205.716V206.896C7.01639 210.998 13.7968 215.331 20.3278 219.892C48.5735 239.616 70.7498 262.585 86.2402 288.159C94.6382 302.024 100.864 316.342 104.894 330.999H106.217C102.171 316.22 95.9023 301.784 87.4357 287.806C71.8798 262.123 49.6105 239.059 21.2457 219.252Z" fill="#AAAAAA" fill-opacity="0.1"/>
<path d="M25.3141 216.411C17.2406 210.773 8.79561 205.474 0 200.523V201.69C8.46657 206.489 16.6048 211.612 24.3962 217.052C53.1705 237.145 75.7614 260.543 91.5421 286.596C100.242 300.96 106.658 315.802 110.755 331H112.075C107.962 315.68 101.506 300.721 92.7377 286.243C76.8922 260.082 54.2075 236.587 25.3148 216.41L25.3141 216.411Z" fill="#AAAAAA" fill-opacity="0.1"/>
<path d="M68.5015 246.678C57.0408 234.831 43.8798 223.692 29.3825 213.569C20.1417 207.116 10.3083 201.043 0 195.414V196.566C9.9763 202.048 19.5 207.951 28.4646 214.211C42.9031 224.293 56.0113 235.388 67.4258 247.186C78.9498 259.097 88.8472 271.831 96.8433 285.032C105.847 299.896 112.442 315.262 116.605 331H117.924C113.747 315.141 107.11 299.657 98.0389 284.679C90.01 271.423 80.0717 258.638 68.5015 246.678V246.678Z" fill="#AAAAAA" fill-opacity="0.1"/>
<path d="M73.2727 244.431C61.6065 232.373 48.2087 221.033 33.4516 210.728C22.9922 203.424 11.7875 196.598 0 190.34V191.48C11.4533 197.598 22.3475 204.256 32.533 211.369C47.232 221.633 60.5769 232.927 72.197 244.938C83.9279 257.064 94.004 270.027 102.145 283.467C111.451 298.831 118.23 314.721 122.456 330.999H123.775C119.535 314.599 112.715 298.59 103.341 283.114C95.1675 269.621 85.0513 256.606 73.2727 244.431V244.431Z" fill="#AAAAAA" fill-opacity="0.1"/>
<path d="M78.0438 242.185C66.1714 229.914 52.5377 218.374 37.52 207.888C25.8516 199.739 13.2727 192.175 0 185.317V186.446C12.937 193.171 25.2054 200.57 36.6021 208.528C51.5617 218.975 65.1426 230.469 76.9681 242.693C88.9075 255.033 99.1615 268.226 107.446 281.904C117.054 297.767 124.019 314.181 128.305 331H129.625C125.326 314.059 118.319 297.527 108.643 281.551C100.325 267.819 90.0301 254.575 78.0446 242.185H78.0438Z" fill="#AAAAAA" fill-opacity="0.1"/>
<path d="M82.815 239.938C70.7371 227.455 56.8659 215.714 41.5884 205.046C28.7207 196.06 14.7646 187.771 0 180.341V181.46C14.4273 188.764 28.0723 196.889 40.6705 205.687C55.8899 216.315 69.7075 228.009 81.7393 240.445C93.8864 253 104.319 266.423 112.748 280.34C122.658 296.701 129.807 313.64 134.151 330.999H135.468C131.111 313.517 123.922 296.461 113.944 279.986C105.483 266.015 95.009 252.541 82.815 239.938V239.938Z" fill="#AAAAAA" fill-opacity="0.1"/>
<path d="M87.5861 237.692C75.3021 224.995 61.1948 213.055 45.6568 202.205C31.5979 192.387 16.2609 183.388 0 175.41V176.52C15.9229 184.377 30.948 193.216 44.7389 202.846C60.2189 213.656 74.2725 225.55 86.5104 238.2C98.8652 250.97 109.477 264.621 118.05 278.776C128.263 295.636 135.587 313.099 139.988 330.999H141.305C136.891 312.978 129.527 295.396 119.246 278.423C110.64 264.214 99.9886 250.511 87.5869 237.691L87.5861 237.692Z" fill="#AAAAAA" fill-opacity="0.1"/>
<path d="M92.3573 235.446C79.8677 222.536 65.5238 210.396 49.7252 199.364C34.4819 188.719 17.7617 179.021 0 170.518V171.619C17.423 180.005 33.8305 189.546 48.808 200.004C64.5485 210.996 78.8389 223.09 91.2823 235.952C103.845 248.937 114.635 262.819 123.352 277.211C133.867 294.57 141.37 312.558 145.826 330.999H147.142C142.675 312.436 135.132 294.33 124.549 276.858C115.798 262.412 104.968 248.478 92.3588 235.445L92.3573 235.446Z" fill="#AAAAAA" fill-opacity="0.1"/>
<path d="M97.1291 233.199C84.4334 220.076 69.8542 207.737 53.795 196.523C37.7359 185.308 20.065 175.127 1.273 166.262C0.849411 166.062 0.425078 165.864 0 165.665V166.757C0.181644 166.842 0.364033 166.927 0.545678 167.013C19.2692 175.846 36.8761 185.989 52.8764 197.163C68.8767 208.336 83.4038 220.631 96.0527 233.706C108.823 246.906 119.792 261.017 128.653 275.648C139.47 293.506 147.154 312.017 151.662 330.999H152.979C148.459 311.895 140.734 293.266 129.85 275.295C120.955 260.61 109.946 246.447 97.1291 233.199Z" fill="#AAAAAA" fill-opacity="0.1"/>
<path d="M101.9 230.952C88.9988 217.617 74.1821 205.077 57.8632 193.681C41.5435 182.286 23.586 171.939 4.49023 162.93C3.00209 162.228 1.50427 161.535 0.000488281 160.848V161.931C1.26009 162.509 2.51448 163.092 3.76366 163.681C22.7917 172.658 40.6844 182.967 56.946 194.322C73.2069 205.678 87.97 218.172 100.825 231.46C113.803 244.874 124.95 259.215 133.956 274.084C145.075 292.441 152.941 311.476 157.5 330.999H158.814C154.244 311.354 146.339 292.2 135.151 273.731C126.113 258.808 114.926 244.415 101.901 230.952H101.9Z" fill="#AAAAAA" fill-opacity="0.1"/>
<path d="M106.671 228.706C93.5648 215.158 78.5121 202.418 61.9318 190.84C45.3516 179.262 27.1075 168.751 7.70649 159.598C5.16049 158.397 2.59067 157.219 0 156.062V157.138C2.34426 158.19 4.67213 159.26 6.97991 160.349C26.3124 169.469 44.4925 179.944 61.0139 191.481C77.5354 203.018 92.5352 215.713 105.596 229.213C118.782 242.842 130.107 257.412 139.257 272.519C150.678 291.374 158.716 310.935 163.324 330.999H164.638C160.019 310.813 151.941 291.134 140.452 272.166C131.269 257.005 119.904 242.383 106.671 228.705L106.671 228.706Z" fill="#AAAAAA" fill-opacity="0.1"/>
<path d="M111.443 226.46C98.1297 212.699 82.841 199.759 66.0002 188C49.1601 176.24 30.6294 165.564 10.924 156.267C7.32682 154.57 3.68426 152.917 0 151.308V152.378C3.43636 153.887 6.83698 155.433 10.1967 157.018C29.8344 166.282 48.3003 176.921 65.0816 188.64C81.8636 200.359 97.0994 213.254 110.366 226.967C123.759 240.811 135.263 255.612 144.558 270.956C156.28 290.31 164.493 310.395 169.148 331H170.463C165.796 310.272 157.544 290.069 145.753 270.603C136.426 255.204 124.882 240.353 111.441 226.46H111.443Z" fill="#AAAAAA" fill-opacity="0.1"/>
<path d="M116.214 224.214C102.695 210.24 87.17 197.1 70.0686 185.158C52.968 173.217 34.1514 162.375 14.1407 152.935C9.49911 150.745 4.78231 148.628 0 146.582V147.644C4.53367 149.593 9.00703 151.608 13.4141 153.686C33.3563 163.094 52.1089 173.899 69.1507 185.799C86.1933 197.7 101.665 210.795 115.138 224.72C128.74 238.78 140.422 253.809 149.86 269.392C161.885 289.244 170.272 309.854 174.974 330.999H176.289C171.577 309.731 163.149 289.003 151.056 269.038C141.585 253.401 129.862 238.32 116.214 224.212V224.214Z" fill="#AAAAAA" fill-opacity="0.1"/>
<path d="M120.985 221.967C107.26 207.781 91.4989 194.441 74.1377 182.318C56.7765 170.194 37.6734 159.188 17.3582 149.604C11.6766 146.924 5.88558 144.348 0 141.883V142.941C5.63619 145.313 11.1838 147.786 16.6309 150.355C36.8775 159.907 55.9167 170.876 73.2191 182.958C90.5215 195.041 106.23 208.336 119.909 222.474C133.719 236.748 145.579 252.007 155.162 267.828C167.488 288.178 176.056 309.312 180.802 331H182.116C177.359 309.191 168.751 287.938 156.357 267.475C146.742 251.6 134.84 236.289 120.984 221.966L120.985 221.967Z" fill="#AAAAAA" fill-opacity="0.1"/>
<path d="M125.756 219.721C111.826 205.322 95.8271 191.782 78.2061 179.477C60.5844 167.172 41.1946 156 20.575 146.273C13.8593 143.104 6.99406 140.081 0 137.209V138.26C6.74318 141.041 13.3658 143.965 19.8484 147.023C40.3995 156.718 59.7253 167.852 77.2882 180.117C94.8512 192.382 110.796 205.876 124.68 220.228C138.697 234.716 150.737 250.205 160.464 266.264C173.092 287.112 181.834 308.771 186.625 331H187.938C183.138 308.649 174.355 286.873 161.659 265.911C151.899 249.798 139.82 234.258 125.756 219.721Z" fill="#AAAAAA" fill-opacity="0.1"/>
<path d="M130.527 217.474C116.391 202.863 100.156 189.122 82.2745 176.636C64.393 164.149 44.7158 152.812 23.7917 142.941C16.0472 139.286 8.10551 135.823 0 132.559V133.606C7.85389 136.783 15.5529 140.148 23.0651 143.691C43.9207 153.531 63.5331 164.83 81.3566 177.276C99.1801 189.723 115.361 203.417 129.451 217.981C143.676 232.685 155.894 248.403 165.765 264.7C178.695 286.046 187.61 308.229 192.442 330.999H193.754C188.912 308.107 179.958 285.805 166.961 264.347C157.057 247.995 144.799 232.225 130.527 217.474V217.474Z" fill="#AAAAAA" fill-opacity="0.1"/>
<path d="M135.298 215.227C120.956 200.403 104.485 186.463 86.3429 173.794C68.2008 161.126 48.2378 149.624 27.0084 139.608C18.2396 135.471 9.22143 131.573 0 127.931V128.973C8.96907 132.532 17.7438 136.332 26.2826 140.359C47.4434 150.342 67.3417 161.807 85.4257 174.435C103.51 187.063 119.927 200.958 134.223 215.735C148.657 230.653 161.052 246.601 171.068 263.136C184.298 284.98 193.387 307.688 198.26 330.999H199.571C194.689 307.566 185.562 284.739 172.263 262.783C162.215 246.194 149.778 230.194 135.298 215.227Z" fill="#AAAAAA" fill-opacity="0.1"/>
<path d="M140.069 212.981C125.522 197.944 108.814 183.804 90.4113 170.953C72.0086 158.103 51.759 146.435 30.2252 136.276C20.4357 131.658 10.3403 127.334 0 123.325V124.361C10.0872 128.289 19.9392 132.518 29.4994 137.028C50.9647 147.155 71.1503 158.784 89.4941 171.594C107.838 184.404 124.493 198.499 138.994 213.488C153.635 228.622 166.209 244.8 176.369 261.572C189.901 283.914 199.163 307.147 204.075 330.999H205.387C200.465 307.024 191.165 283.673 177.564 261.219C167.372 244.391 154.757 228.162 140.069 212.98V212.981Z" fill="#AAAAAA" fill-opacity="0.1"/>
<path d="M144.841 210.734C130.087 195.484 113.144 181.144 94.4812 168.112C75.8187 155.079 55.2824 143.248 33.4434 132.945C22.6356 127.847 11.4622 123.102 0 118.738V119.771C11.2084 124.056 22.1383 128.706 32.7161 133.697C54.4859 143.967 74.9581 155.762 93.5625 168.753C112.167 181.745 129.058 196.04 143.765 211.243C158.613 226.591 171.367 242.998 181.671 260.009C195.505 282.849 204.936 306.606 209.888 331.001H211.199C206.239 306.485 196.769 282.609 182.867 259.656C172.53 242.591 159.737 226.132 144.841 210.735V210.734Z" fill="#AAAAAA" fill-opacity="0.1"/>
<path d="M149.612 208.488C134.653 193.025 117.473 178.485 98.5496 165.271C79.6265 152.057 58.8037 140.06 36.6609 129.614C24.8391 124.037 12.5863 118.876 0 114.169V115.198C12.3317 119.829 24.3411 124.895 35.9336 130.364C58.0079 140.778 78.7659 152.738 97.6309 165.911C116.496 179.084 133.623 193.58 148.537 208.995C163.593 224.557 176.524 241.195 186.972 258.444C201.108 281.781 210.71 306.063 215.699 330.999H217.01C212.013 305.941 202.371 281.54 188.168 258.091C177.688 240.788 164.715 224.099 149.612 208.487V208.488Z" fill="#AAAAAA" fill-opacity="0.1"/>
<path d="M154.384 206.242C139.219 190.566 121.802 175.826 102.618 162.43C83.4344 149.034 62.3249 136.872 39.8777 126.282C27.0457 120.228 13.7127 114.659 0 109.619V110.644C13.4581 115.609 26.5469 121.086 39.1503 127.033C61.5298 137.59 82.5745 149.716 101.7 163.07C120.826 176.426 138.189 191.121 153.308 206.748C168.572 222.526 181.682 239.392 192.274 256.88C206.711 280.715 216.485 305.522 221.511 330.999H222.822C217.788 305.4 207.975 280.474 193.471 256.527C182.846 238.986 169.695 222.067 154.384 206.241V206.242Z" fill="#AAAAAA" fill-opacity="0.1"/>
<path d="M159.155 203.995C143.783 188.107 126.131 173.167 106.686 159.588C87.2429 146.011 65.8469 133.684 43.0944 122.95C29.2559 116.422 14.8405 110.449 0 105.087V106.107C14.5859 111.397 28.7564 117.28 42.3678 123.701C65.0518 134.403 86.3831 146.693 105.769 160.23C125.155 173.767 142.755 188.663 158.08 204.503C173.552 220.495 186.84 237.591 197.576 255.317C212.314 279.649 222.258 304.981 227.318 331.001H228.628C223.559 304.86 213.577 279.409 198.771 254.964C188.002 237.185 174.673 220.036 159.154 203.996L159.155 203.995Z" fill="#AAAAAA" fill-opacity="0.1"/>
<path d="M163.926 201.749C148.348 185.648 130.459 170.507 110.755 156.748C91.05 142.988 69.3681 130.496 46.3111 119.618C31.4684 112.616 15.9713 106.244 0 100.57V101.587C15.7152 107.192 30.9681 113.473 45.5846 120.369C68.573 131.215 90.1909 143.669 109.837 157.388C129.483 171.107 147.32 186.203 162.85 202.256C178.53 218.464 191.997 235.79 202.878 253.753C217.917 278.583 228.029 304.44 233.124 331.001H234.433C229.33 304.318 219.179 278.342 204.072 253.4C193.16 235.383 179.652 218.005 163.925 201.75L163.926 201.749Z" fill="#AAAAAA" fill-opacity="0.1"/>
<path d="M168.697 199.502C152.914 183.188 134.788 167.847 114.824 153.905C94.8586 139.964 72.8908 127.307 49.5286 116.285C33.6831 108.811 17.1029 102.046 0 96.0687V97.0823C16.8468 102.992 33.1829 109.669 48.802 117.037C72.095 128.026 93.9995 140.646 113.906 154.547C133.812 168.447 151.885 183.743 167.621 200.009C183.508 216.431 197.154 233.987 208.179 252.189C223.519 277.516 233.802 303.898 238.931 331H240.24C235.104 303.776 224.783 277.275 209.375 251.836C198.318 233.58 184.631 215.972 168.697 199.503V199.502Z" fill="#AAAAAA" fill-opacity="0.1"/>
<path d="M173.468 197.255C157.48 180.729 139.117 165.188 118.892 151.065C98.6664 136.941 76.412 124.119 52.7454 112.954C35.9008 105.008 18.2359 97.8532 0 91.5818V92.5925C17.9798 98.7984 35.3998 105.866 52.0188 113.706C75.6169 124.838 97.8073 137.624 117.974 151.706C138.141 165.788 156.45 181.284 172.392 197.763C188.487 214.4 202.312 232.185 213.481 250.624C229.123 276.448 239.573 303.356 244.735 330.999H246.044C240.875 303.234 230.386 276.208 214.677 250.271C203.475 231.777 189.611 213.94 173.468 197.255V197.255Z" fill="#AAAAAA" fill-opacity="0.1"/>
<path d="M219.979 248.708C208.633 229.976 194.59 211.909 178.24 195.009C162.045 178.27 143.447 162.529 122.961 148.224C102.476 133.919 79.934 120.932 55.9629 109.623C38.1208 101.206 19.3704 93.6657 0 87.1089V88.1166C19.1136 94.6094 37.619 102.063 55.2355 110.375C79.1389 121.651 101.616 134.602 122.043 148.865C142.47 163.13 161.015 178.825 177.164 195.517C193.467 212.369 207.47 230.383 218.783 249.061C234.725 275.383 245.343 302.815 250.537 331.001H251.818C250.398 323.289 248.577 315.628 246.357 308.049C240.409 287.752 231.533 267.787 219.978 248.708L219.979 248.708Z" fill="#AAAAAA" fill-opacity="0.1"/>
<path d="M225.28 247.144C213.79 228.174 199.568 209.878 183.011 192.763C166.61 175.811 147.775 159.87 127.029 145.383C106.283 130.895 83.4552 117.743 59.1789 106.291C40.3429 97.4045 20.5057 89.4833 0 82.6492V83.654C20.2489 90.4255 39.8404 98.2614 58.453 107.042C82.6609 118.463 105.425 131.578 126.112 146.024C146.799 160.47 165.581 176.366 181.935 193.27C198.446 210.337 212.627 228.581 224.085 247.497C235.754 266.762 244.715 286.923 250.722 307.42C253.003 315.206 254.867 323.076 256.312 331H257.621C256.169 323.015 254.293 315.084 251.994 307.239C245.97 286.684 236.983 266.465 225.28 247.144Z" fill="#AAAAAA" fill-opacity="0.1"/>
<path d="M230.582 245.58C218.948 226.372 204.548 207.846 187.782 190.516C171.176 173.351 152.105 157.21 131.098 142.542C110.092 127.873 86.9772 114.555 62.3964 102.959C42.5666 93.6039 21.6425 85.3053 0 78.2028V79.2046C21.3849 86.2476 42.0641 94.4615 61.6698 103.71C86.1821 115.274 109.232 128.555 130.18 143.183C151.128 157.81 170.146 173.907 186.707 191.024C203.425 208.305 217.784 226.779 229.386 245.933C241.202 265.441 250.277 285.856 256.359 306.61C258.718 314.662 260.637 322.803 262.112 331H263.42C261.938 322.742 260.008 314.54 257.631 306.429C251.531 285.615 242.431 265.143 230.581 245.58H230.582Z" fill="#AAAAAA" fill-opacity="0.1"/>
<path d="M235.884 244.016C224.105 224.57 209.527 205.814 192.554 188.27C189.706 185.327 186.785 182.414 183.797 179.532C180.194 176.057 176.493 172.629 172.693 169.251C169.629 166.526 166.502 163.835 163.316 161.179C159.369 157.887 155.331 154.649 151.204 151.469C145.994 147.452 140.646 143.527 135.167 139.7C113.901 124.85 90.4991 111.368 65.6139 99.6273C44.7925 89.8047 22.7793 81.1325 0 73.7681V74.767C22.5224 82.0733 44.2892 90.6616 64.8873 100.379C89.7041 112.087 113.041 125.532 134.249 140.342C144.036 147.176 153.405 154.327 162.307 161.749C165.494 164.406 168.621 167.098 171.685 169.823C178.611 175.982 185.218 182.307 191.478 188.778C208.404 206.274 222.943 224.978 234.688 244.37C246.652 264.12 255.839 284.789 261.996 305.802C264.433 314.12 266.405 322.532 267.911 331.001H269.219C267.707 322.47 265.724 313.998 263.268 305.62C257.094 284.549 247.881 263.822 235.885 244.017L235.884 244.016Z" fill="white" fill-opacity="0.1"/>
</svg>
