<svg width="24" height="24" viewBox="0 0 24 24" fill="none" xmlns="http://www.w3.org/2000/svg">
<g clip-path="url(#clip0_11_313)">
<path d="M0 11.25C0.071875 10.9887 0.0625 10.6725 0.100625 10.3894C0.33375 8.63625 0.980625 6.95438 1.91813 5.46688L2.015 5.4375L7.32188 14.6862C8.34063 16.4406 10.31 17.5181 12.3513 17.39C12.7694 17.3637 13.1825 17.2344 13.5944 17.18L9.77625 23.7975C5.15188 22.9513 1.34938 19.3 0.304375 14.7194C0.1625 14.0969 0.036875 13.3744 0 12.75V11.25Z" fill="white"/>
<path d="M11.3438 24C11.3544 23.8588 11.4537 23.7156 11.5231 23.5938C13.1981 20.6388 15.1413 17.6519 16.6956 14.6569C17.8988 12.3394 17.5125 9.83625 15.6562 8.01625H23.3438C23.6444 9.0475 23.9356 10.0988 23.9513 11.1844L24 11.2975V12.7506C23.9275 13.0206 23.9369 13.3294 23.8994 13.6113C23.1963 18.9163 18.9206 23.2063 13.6106 23.9C13.3288 23.9369 13.02 23.9288 12.75 24.0006H11.3438V24Z" fill="white"/>
<path d="M12.75 0C16.3694 0.25375 19.7137 2.115 21.8075 5.07563C22.1531 5.565 22.4462 6.085 22.7344 6.60875L11.6462 6.6075C9.28624 6.77313 7.24187 8.525 6.72624 10.8288L2.91187 4.15813C4.90812 1.85875 7.75374 0.3425 10.805 0.046875C10.9425 0.03375 11.1381 0.00625 11.25 0H12.75Z" fill="white"/>
<path d="M11.6157 8.02938C14.8457 7.74375 17.0825 11.1981 15.4419 14.0119C13.8044 16.8194 9.6044 16.565 8.33565 13.5788C7.28753 11.1113 8.93565 8.26688 11.6163 8.02938H11.6157Z" fill="white"/>
</g>
<defs>
<clipPath id="clip0_11_313">
<rect width="24" height="24" fill="white"/>
</clipPath>
</defs>
</svg>
