<svg width="16" height="19" viewBox="0 0 16 19" fill="none" xmlns="http://www.w3.org/2000/svg">
<path d="M13.8333 0.666667C14.2754 0.666667 14.6993 0.842262 15.0118 1.15482C15.3244 1.46738 15.5 1.89131 15.5 2.33333V12.3333C15.5 12.7754 15.3244 13.1993 15.0118 13.5118C14.6993 13.8244 14.2754 14 13.8333 14H12.1667V15.6667C12.1667 16.1087 11.9911 16.5326 11.6785 16.8452C11.3659 17.1577 10.942 17.3333 10.5 17.3333H2.16667C1.72464 17.3333 1.30072 17.1577 0.988155 16.8452C0.675595 16.5326 0.5 16.1087 0.5 15.6667V5.66667C0.5 5.22464 0.675595 4.80072 0.988155 4.48816C1.30072 4.17559 1.72464 4 2.16667 4H3.83333V2.33333C3.83333 1.89131 4.00893 1.46738 4.32149 1.15482C4.63405 0.842262 5.05797 0.666667 5.5 0.666667H13.8333ZM6.33333 11.5H4.66667C4.45427 11.5002 4.24997 11.5816 4.09553 11.7274C3.94108 11.8732 3.84814 12.0725 3.83569 12.2845C3.82324 12.4965 3.89223 12.7053 4.02855 12.8682C4.16488 13.0311 4.35825 13.1357 4.56917 13.1608L4.66667 13.1667H6.33333C6.54573 13.1664 6.75003 13.0851 6.90447 12.9393C7.05892 12.7935 7.15186 12.5942 7.16431 12.3822C7.17676 12.1701 7.10777 11.9614 6.97145 11.7985C6.83512 11.6356 6.64175 11.5309 6.43083 11.5058L6.33333 11.5ZM13.8333 2.33333H5.5V4H10.5C10.942 4 11.3659 4.17559 11.6785 4.48816C11.9911 4.80072 12.1667 5.22464 12.1667 5.66667V12.3333H13.8333V2.33333ZM8 8.16667H4.66667C4.44565 8.16667 4.23369 8.25446 4.07741 8.41074C3.92113 8.56703 3.83333 8.77899 3.83333 9C3.83333 9.22101 3.92113 9.43297 4.07741 9.58926C4.23369 9.74554 4.44565 9.83333 4.66667 9.83333H8C8.22101 9.83333 8.43297 9.74554 8.58926 9.58926C8.74554 9.43297 8.83333 9.22101 8.83333 9C8.83333 8.77899 8.74554 8.56703 8.58926 8.41074C8.43297 8.25446 8.22101 8.16667 8 8.16667Z" fill="black"/>
</svg>
