<svg width="32" height="32" viewBox="0 0 32 32" fill="none" xmlns="http://www.w3.org/2000/svg">
<path d="M15.9997 12C14.9388 12 13.9214 12.4214 13.1712 13.1716C12.4211 13.9217 11.9997 14.9391 11.9997 16C11.9997 17.0609 12.4211 18.0783 13.1712 18.8284C13.9214 19.5786 14.9388 20 15.9997 20C17.0605 20 18.078 19.5786 18.8281 18.8284C19.5782 18.0783 19.9997 17.0609 19.9997 16C19.9997 14.9391 19.5782 13.9217 18.8281 13.1716C18.078 12.4214 17.0605 12 15.9997 12ZM15.9997 22.6667C14.2316 22.6667 12.5359 21.9643 11.2856 20.714C10.0354 19.4638 9.33301 17.7681 9.33301 16C9.33301 14.2319 10.0354 12.5362 11.2856 11.286C12.5359 10.0357 14.2316 9.33333 15.9997 9.33333C17.7678 9.33333 19.4635 10.0357 20.7137 11.286C21.964 12.5362 22.6663 14.2319 22.6663 16C22.6663 17.7681 21.964 19.4638 20.7137 20.714C19.4635 21.9643 17.7678 22.6667 15.9997 22.6667ZM15.9997 6C9.33301 6 3.63967 10.1467 1.33301 16C3.63967 21.8533 9.33301 26 15.9997 26C22.6663 26 28.3597 21.8533 30.6663 16C28.3597 10.1467 22.6663 6 15.9997 6Z" fill="#757575"/>
<path d="M15.9997 12C14.9388 12 13.9214 12.4214 13.1712 13.1716C12.4211 13.9217 11.9997 14.9391 11.9997 16C11.9997 17.0609 12.4211 18.0783 13.1712 18.8284C13.9214 19.5786 14.9388 20 15.9997 20C17.0605 20 18.078 19.5786 18.8281 18.8284C19.5782 18.0783 19.9997 17.0609 19.9997 16C19.9997 14.9391 19.5782 13.9217 18.8281 13.1716C18.078 12.4214 17.0605 12 15.9997 12ZM15.9997 22.6667C14.2316 22.6667 12.5359 21.9643 11.2856 20.714C10.0354 19.4638 9.33301 17.7681 9.33301 16C9.33301 14.2319 10.0354 12.5362 11.2856 11.286C12.5359 10.0357 14.2316 9.33333 15.9997 9.33333C17.7678 9.33333 19.4635 10.0357 20.7137 11.286C21.964 12.5362 22.6663 14.2319 22.6663 16C22.6663 17.7681 21.964 19.4638 20.7137 20.714C19.4635 21.9643 17.7678 22.6667 15.9997 22.6667ZM15.9997 6C9.33301 6 3.63967 10.1467 1.33301 16C3.63967 21.8533 9.33301 26 15.9997 26C22.6663 26 28.3597 21.8533 30.6663 16C28.3597 10.1467 22.6663 6 15.9997 6Z" fill="#757575"/>
</svg>
