<svg width="20" height="20" viewBox="0 0 20 20" fill="none" xmlns="http://www.w3.org/2000/svg">
<path d="M17.2583 5.86667C16.975 6.15 16.7 6.425 16.6917 6.7C16.6667 6.96667 16.95 7.24167 17.2167 7.5C17.6167 7.91667 18.0083 8.29167 17.9917 8.7C17.975 9.10833 17.55 9.53333 17.125 9.95L13.6833 13.4L12.5 12.2167L16.0417 8.68333L15.2417 7.88333L14.0583 9.05833L10.9333 5.93333L14.1333 2.74167C14.4583 2.41667 15 2.41667 15.3083 2.74167L17.2583 4.69167C17.5833 5 17.5833 5.54167 17.2583 5.86667ZM2.5 14.375L10.4667 6.4L13.5917 9.525L5.625 17.5H2.5V14.375Z" fill="black"/>
</svg>
