<svg width="32" height="32" viewBox="0 0 32 32" fill="none" xmlns="http://www.w3.org/2000/svg">
<path d="M27.6133 9.38658C27.16 9.83992 26.72 10.2799 26.7067 10.7199C26.6667 11.1466 27.12 11.5866 27.5467 11.9999C28.1867 12.6666 28.8133 13.2666 28.7867 13.9199C28.76 14.5732 28.08 15.2532 27.4 15.9199L21.8933 21.4399L20 19.5466L25.6667 13.8932L24.3867 12.6132L22.4933 14.4932L17.4933 9.49325L22.6133 4.38658C23.1333 3.86658 24 3.86658 24.4933 4.38658L27.6133 7.50658C28.1333 7.99992 28.1333 8.86658 27.6133 9.38658ZM4 22.9999L16.7467 10.2399L21.7467 15.2399L9 27.9999H4V22.9999Z" fill="#757575"/>
</svg>
