<svg width="24" height="24" viewBox="0 0 24 24" fill="none" xmlns="http://www.w3.org/2000/svg">
<path d="M10.5734 6.39057C11.0224 5.00861 12.9776 5.00861 13.4266 6.39058L14.1329 8.56434C14.3337 9.18237 14.9096 9.60081 15.5595 9.60081H17.8451C19.2982 9.60081 19.9023 11.4602 18.7268 12.3143L16.8777 13.6578C16.3519 14.0398 16.1319 14.7168 16.3328 15.3348L17.0391 17.5086C17.4881 18.8906 15.9064 20.0398 14.7308 19.1857L12.8817 17.8422C12.3559 17.4602 11.6441 17.4602 11.1183 17.8422L9.26921 19.1857C8.09364 20.0398 6.51192 18.8906 6.96095 17.5086L7.66725 15.3348C7.86806 14.7168 7.64807 14.0398 7.12234 13.6578L5.27322 12.3143C4.09765 11.4602 4.70182 9.60081 6.1549 9.60081H8.44053C9.09037 9.60081 9.66631 9.18237 9.86712 8.56434L10.5734 6.39057Z" fill="#EF7420"/>
</svg>
