<svg width="23" height="25" viewBox="0 0 23 25" fill="none" xmlns="http://www.w3.org/2000/svg">
<path d="M9.41539 6.73182C10.7388 4.35759 11.4007 3.17047 12.39 3.17047C13.3793 3.17047 14.0411 4.35759 15.3646 6.73182L15.7071 7.34607C16.0831 8.02074 16.2712 8.35809 16.5644 8.58068C16.8575 8.80325 17.2228 8.88588 17.9531 9.05112L18.618 9.20156C21.188 9.7831 22.4731 10.0738 22.7788 11.057C23.0845 12.04 22.2084 13.0645 20.4564 15.1134L20.0031 15.6434C19.5051 16.2257 19.2562 16.5168 19.1442 16.877C19.0322 17.2371 19.0699 17.6255 19.1452 18.4023L19.2137 19.1095C19.4786 21.8431 19.611 23.21 18.8106 23.8176C18.0102 24.4252 16.807 23.8712 14.4007 22.7632L13.7781 22.4766C13.0944 22.1618 12.7524 22.0043 12.39 22.0043C12.0276 22.0043 11.6856 22.1618 11.0019 22.4766L10.3793 22.7632C7.97292 23.8712 6.76975 24.4252 5.96934 23.8176C5.16893 23.21 5.30138 21.8431 5.56628 19.1095L5.63481 18.4023C5.71008 17.6255 5.74772 17.2371 5.63572 16.877C5.52373 16.5168 5.27478 16.2257 4.77689 15.6434L4.32359 15.1134C2.57148 13.0645 1.69543 12.04 2.00116 11.057C2.30688 10.0738 3.59193 9.7831 6.16201 9.20156L6.82691 9.05112C7.55725 8.88588 7.92241 8.80325 8.21562 8.58068C8.50883 8.35809 8.69688 8.02075 9.07298 7.34607L9.41539 6.73182Z" fill="url(#paint0_linear_8_295)"/>
<path d="M3.00757 0.0979498C3.04443 -0.0320827 3.27525 -0.0328697 3.31299 0.096917C3.48534 0.689562 3.80492 1.56557 4.28818 2.04557C4.77144 2.52558 5.64957 2.83923 6.24337 3.00757C6.37342 3.04443 6.37419 3.27525 6.2444 3.31299C5.65176 3.48534 4.77575 3.80492 4.29576 4.28818C3.81575 4.77144 3.50209 5.64957 3.33376 6.24337C3.29689 6.37342 3.06607 6.37419 3.02833 6.2444C2.85599 5.65176 2.53641 4.77575 2.05315 4.29576C1.56988 3.81575 0.691751 3.50209 0.0979498 3.33376C-0.0320827 3.29689 -0.0328697 3.06607 0.096917 3.02833C0.689562 2.85599 1.56557 2.53641 2.04557 2.05315C2.52558 1.56988 2.83923 0.691751 3.00757 0.0979498Z" fill="url(#paint1_linear_8_295)"/>
<path fill-rule="evenodd" clip-rule="evenodd" d="M20.3802 1.01895C20.8894 1.01895 21.3022 1.43173 21.3022 1.94091V2.24823H21.6095C22.1187 2.24823 22.5315 2.661 22.5315 3.17018C22.5315 3.67936 22.1187 4.09214 21.6095 4.09214H21.3022V4.39945C21.3022 4.90863 20.8894 5.32141 20.3802 5.32141C19.8711 5.32141 19.4583 4.90863 19.4583 4.39945V4.09214H19.151C18.6418 4.09214 18.229 3.67936 18.229 3.17018C18.229 2.661 18.6418 2.24823 19.151 2.24823H19.4583V1.94091C19.4583 1.43173 19.8711 1.01895 20.3802 1.01895Z" fill="url(#paint2_linear_8_295)"/>
<defs>
<linearGradient id="paint0_linear_8_295" x1="12.39" y1="3.17047" x2="12.39" y2="24.0681" gradientUnits="userSpaceOnUse">
<stop offset="0.25" stop-color="#19CCED"/>
<stop offset="1" stop-color="#00AEEF"/>
</linearGradient>
<linearGradient id="paint1_linear_8_295" x1="3.17066" y1="0" x2="3.17066" y2="6.34133" gradientUnits="userSpaceOnUse">
<stop offset="0.25" stop-color="#19CCED"/>
<stop offset="1" stop-color="#00AEEF"/>
</linearGradient>
<linearGradient id="paint2_linear_8_295" x1="20.3802" y1="1.01895" x2="20.3802" y2="5.32141" gradientUnits="userSpaceOnUse">
<stop offset="0.25" stop-color="#19CCED"/>
<stop offset="1" stop-color="#00AEEF"/>
</linearGradient>
</defs>
</svg>
